<svg width="516" height="532" viewBox="0 0 516 532" fill="none" xmlns="http://www.w3.org/2000/svg">
<g filter="url(#filter0_n_42_17)">
<path d="M428.038 445.54C428.038 445.54 502.038 118.04 428.038 88.0402C354.038 58.0402 68.5376 445.54 68.5376 445.54H428.038Z" fill="url(#paint0_linear_42_17)"/>
<path d="M486.96 363.592C486.96 363.592 421.356 34.3078 341.552 37C261.748 39.6921 158.541 509.814 158.541 509.814L486.96 363.592Z" fill="url(#paint1_linear_42_17)"/>
<path d="M507.458 264.764C507.458 264.764 313.593 -9.3694 241.783 25.5494C169.973 60.4682 266.905 531.924 266.905 531.924L507.458 264.764Z" fill="url(#paint2_linear_42_17)"/>
<path d="M485.985 166.142C485.985 166.142 197.382 -5.43931 145.983 55.6684C94.5837 116.776 374.894 508.047 374.894 508.047L485.985 166.142Z" fill="url(#paint3_linear_42_17)"/>
</g>
<defs>
<filter id="filter0_n_42_17" x="68.5376" y="22.4758" width="438.92" height="509.448" filterUnits="userSpaceOnUse" color-interpolation-filters="sRGB">
<feFlood flood-opacity="0" result="BackgroundImageFix"/>
<feBlend mode="normal" in="SourceGraphic" in2="BackgroundImageFix" result="shape"/>
<feTurbulence type="fractalNoise" baseFrequency="2 2" stitchTiles="stitch" numOctaves="3" result="noise" seed="9804" />
<feComponentTransfer in="noise" result="coloredNoise1">
<feFuncR type="linear" slope="2" intercept="-0.5" />
<feFuncG type="linear" slope="2" intercept="-0.5" />
<feFuncB type="linear" slope="2" intercept="-0.5" />
<feFuncA type="discrete" tableValues="0 0 0 0 0 0 0 0 0 0 0 0 0 0 0 0 0 0 0 1 1 1 1 1 1 1 1 1 1 1 0 0 0 0 0 0 0 0 0 0 0 0 0 0 0 0 0 0 0 0 0 0 0 0 0 0 0 0 0 0 0 0 0 0 0 0 0 0 0 0 0 0 0 0 0 0 0 0 0 0 0 0 0 0 0 0 0 0 0 0 0 0 0 0 0 0 0 0 0 0 "/>
</feComponentTransfer>
<feComposite operator="in" in2="shape" in="coloredNoise1" result="noise1Clipped" />
<feComponentTransfer in="noise1Clipped" result="color1">
<feFuncA type="table" tableValues="0 0.25" />
</feComponentTransfer>
<feMerge result="effect1_noise_42_17">
<feMergeNode in="shape" />
<feMergeNode in="color1" />
</feMerge>
</filter>
<linearGradient id="paint0_linear_42_17" x1="264.732" y1="86.384" x2="264.732" y2="445.54" gradientUnits="userSpaceOnUse">
<stop stop-color="#60A5FA"/>
<stop offset="1" stop-color="#EBF8FF"/>
</linearGradient>
<linearGradient id="paint1_linear_42_17" x1="191.691" y1="101.909" x2="337.773" y2="430.015" gradientUnits="userSpaceOnUse">
<stop stop-color="#60A5FA"/>
<stop offset="1" stop-color="#EBF8FF"/>
</linearGradient>
<linearGradient id="paint2_linear_42_17" x1="131.28" y1="145.801" x2="398.185" y2="386.123" gradientUnits="userSpaceOnUse">
<stop stop-color="#60A5FA"/>
<stop offset="1" stop-color="#EBF8FF"/>
</linearGradient>
<linearGradient id="paint3_linear_42_17" x1="93.9433" y1="210.469" x2="435.521" y2="321.455" gradientUnits="userSpaceOnUse">
<stop stop-color="#60A5FA"/>
<stop offset="1" stop-color="#EBF8FF"/>
</linearGradient>
</defs>
</svg>
