<svg width="1280" height="950" viewBox="0 0 1280 950" fill="none" xmlns="http://www.w3.org/2000/svg">
<g clip-path="url(#clip0_42_53)">
<path d="M10 20L25 15L10 20ZM40 30L45 50L40 30ZM75 10L85 25L75 10ZM20 80L40 90L20 80ZM90 60L70 70L90 60ZM50 90L60 110L50 90ZM110 100L100 85L110 100ZM5 60L25 50L5 60ZM90 30L110 25L90 30ZM110 50L100 70L110 50ZM30 110L15 100L30 110ZM60 10L50 -5L60 10Z" fill="#60A5FA" fill-opacity="0.7"/>
<path d="M10 20L25 15M40 30L45 50M75 10L85 25M20 80L40 90M90 60L70 70M50 90L60 110M110 100L100 85M5 60L25 50M90 30L110 25M110 50L100 70M30 110L15 100M60 10L50 -5" stroke="#60A5FA" stroke-opacity="0.7" stroke-linecap="round"/>
</g>
<g clip-path="url(#clip1_42_53)">
<path d="M130 20L145 15L130 20ZM160 30L165 50L160 30ZM195 10L205 25L195 10ZM140 80L160 90L140 80ZM210 60L190 70L210 60ZM170 90L180 110L170 90ZM230 100L220 85L230 100ZM125 60L145 50L125 60ZM210 30L230 25L210 30ZM230 50L220 70L230 50ZM150 110L135 100L150 110ZM180 10L170 -5L180 10Z" fill="#60A5FA" fill-opacity="0.7"/>
<path d="M130 20L145 15M160 30L165 50M195 10L205 25M140 80L160 90M210 60L190 70M170 90L180 110M230 100L220 85M125 60L145 50M210 30L230 25M230 50L220 70M150 110L135 100M180 10L170 -5" stroke="#60A5FA" stroke-opacity="0.7" stroke-linecap="round"/>
</g>
<g clip-path="url(#clip2_42_53)">
<path d="M250 20L265 15L250 20ZM280 30L285 50L280 30ZM315 10L325 25L315 10ZM260 80L280 90L260 80ZM330 60L310 70L330 60ZM290 90L300 110L290 90ZM350 100L340 85L350 100ZM245 60L265 50L245 60ZM330 30L350 25L330 30ZM350 50L340 70L350 50ZM270 110L255 100L270 110ZM300 10L290 -5L300 10Z" fill="#60A5FA" fill-opacity="0.7"/>
<path d="M250 20L265 15M280 30L285 50M315 10L325 25M260 80L280 90M330 60L310 70M290 90L300 110M350 100L340 85M245 60L265 50M330 30L350 25M350 50L340 70M270 110L255 100M300 10L290 -5" stroke="#60A5FA" stroke-opacity="0.7" stroke-linecap="round"/>
</g>
<g clip-path="url(#clip3_42_53)">
<path d="M370 20L385 15L370 20ZM400 30L405 50L400 30ZM435 10L445 25L435 10ZM380 80L400 90L380 80ZM450 60L430 70L450 60ZM410 90L420 110L410 90ZM470 100L460 85L470 100ZM365 60L385 50L365 60ZM450 30L470 25L450 30ZM470 50L460 70L470 50ZM390 110L375 100L390 110ZM420 10L410 -5L420 10Z" fill="#60A5FA" fill-opacity="0.7"/>
<path d="M370 20L385 15M400 30L405 50M435 10L445 25M380 80L400 90M450 60L430 70M410 90L420 110M470 100L460 85M365 60L385 50M450 30L470 25M470 50L460 70M390 110L375 100M420 10L410 -5" stroke="#60A5FA" stroke-opacity="0.7" stroke-linecap="round"/>
</g>
<g clip-path="url(#clip4_42_53)">
<path d="M490 20L505 15L490 20ZM520 30L525 50L520 30ZM555 10L565 25L555 10ZM500 80L520 90L500 80ZM570 60L550 70L570 60ZM530 90L540 110L530 90ZM590 100L580 85L590 100ZM485 60L505 50L485 60ZM570 30L590 25L570 30ZM590 50L580 70L590 50ZM510 110L495 100L510 110ZM540 10L530 -5L540 10Z" fill="#60A5FA" fill-opacity="0.7"/>
<path d="M490 20L505 15M520 30L525 50M555 10L565 25M500 80L520 90M570 60L550 70M530 90L540 110M590 100L580 85M485 60L505 50M570 30L590 25M590 50L580 70M510 110L495 100M540 10L530 -5" stroke="#60A5FA" stroke-opacity="0.7" stroke-linecap="round"/>
</g>
<g clip-path="url(#clip5_42_53)">
<path d="M610 20L625 15L610 20ZM640 30L645 50L640 30ZM675 10L685 25L675 10ZM620 80L640 90L620 80ZM690 60L670 70L690 60ZM650 90L660 110L650 90ZM710 100L700 85L710 100ZM605 60L625 50L605 60ZM690 30L710 25L690 30ZM710 50L700 70L710 50ZM630 110L615 100L630 110ZM660 10L650 -5L660 10Z" fill="#60A5FA" fill-opacity="0.7"/>
<path d="M610 20L625 15M640 30L645 50M675 10L685 25M620 80L640 90M690 60L670 70M650 90L660 110M710 100L700 85M605 60L625 50M690 30L710 25M710 50L700 70M630 110L615 100M660 10L650 -5" stroke="#60A5FA" stroke-opacity="0.7" stroke-linecap="round"/>
</g>
<g clip-path="url(#clip6_42_53)">
<path d="M730 20L745 15L730 20ZM760 30L765 50L760 30ZM795 10L805 25L795 10ZM740 80L760 90L740 80ZM810 60L790 70L810 60ZM770 90L780 110L770 90ZM830 100L820 85L830 100ZM725 60L745 50L725 60ZM810 30L830 25L810 30ZM830 50L820 70L830 50ZM750 110L735 100L750 110ZM780 10L770 -5L780 10Z" fill="#60A5FA" fill-opacity="0.7"/>
<path d="M730 20L745 15M760 30L765 50M795 10L805 25M740 80L760 90M810 60L790 70M770 90L780 110M830 100L820 85M725 60L745 50M810 30L830 25M830 50L820 70M750 110L735 100M780 10L770 -5" stroke="#60A5FA" stroke-opacity="0.7" stroke-linecap="round"/>
</g>
<g clip-path="url(#clip7_42_53)">
<path d="M850 20L865 15L850 20ZM880 30L885 50L880 30ZM915 10L925 25L915 10ZM860 80L880 90L860 80ZM930 60L910 70L930 60ZM890 90L900 110L890 90ZM950 100L940 85L950 100ZM845 60L865 50L845 60ZM930 30L950 25L930 30ZM950 50L940 70L950 50ZM870 110L855 100L870 110ZM900 10L890 -5L900 10Z" fill="#60A5FA" fill-opacity="0.7"/>
<path d="M850 20L865 15M880 30L885 50M915 10L925 25M860 80L880 90M930 60L910 70M890 90L900 110M950 100L940 85M845 60L865 50M930 30L950 25M950 50L940 70M870 110L855 100M900 10L890 -5" stroke="#60A5FA" stroke-opacity="0.7" stroke-linecap="round"/>
</g>
<g clip-path="url(#clip8_42_53)">
<path d="M970 20L985 15L970 20ZM1000 30L1005 50L1000 30ZM1035 10L1045 25L1035 10ZM980 80L1000 90L980 80ZM1050 60L1030 70L1050 60ZM1010 90L1020 110L1010 90ZM1070 100L1060 85L1070 100ZM965 60L985 50L965 60ZM1050 30L1070 25L1050 30ZM1070 50L1060 70L1070 50ZM990 110L975 100L990 110ZM1020 10L1010 -5L1020 10Z" fill="#60A5FA" fill-opacity="0.7"/>
<path d="M970 20L985 15M1000 30L1005 50M1035 10L1045 25M980 80L1000 90M1050 60L1030 70M1010 90L1020 110M1070 100L1060 85M965 60L985 50M1050 30L1070 25M1070 50L1060 70M990 110L975 100M1020 10L1010 -5" stroke="#60A5FA" stroke-opacity="0.7" stroke-linecap="round"/>
</g>
<g clip-path="url(#clip9_42_53)">
<path d="M1090 20L1105 15L1090 20ZM1120 30L1125 50L1120 30ZM1155 10L1165 25L1155 10ZM1100 80L1120 90L1100 80ZM1170 60L1150 70L1170 60ZM1130 90L1140 110L1130 90ZM1190 100L1180 85L1190 100ZM1085 60L1105 50L1085 60ZM1170 30L1190 25L1170 30ZM1190 50L1180 70L1190 50ZM1110 110L1095 100L1110 110ZM1140 10L1130 -5L1140 10Z" fill="#60A5FA" fill-opacity="0.7"/>
<path d="M1090 20L1105 15M1120 30L1125 50M1155 10L1165 25M1100 80L1120 90M1170 60L1150 70M1130 90L1140 110M1190 100L1180 85M1085 60L1105 50M1170 30L1190 25M1190 50L1180 70M1110 110L1095 100M1140 10L1130 -5" stroke="#60A5FA" stroke-opacity="0.7" stroke-linecap="round"/>
</g>
<g clip-path="url(#clip10_42_53)">
<path d="M1210 20L1225 15L1210 20ZM1240 30L1245 50L1240 30ZM1275 10L1285 25L1275 10ZM1220 80L1240 90L1220 80ZM1290 60L1270 70L1290 60ZM1250 90L1260 110L1250 90ZM1310 100L1300 85L1310 100ZM1205 60L1225 50L1205 60ZM1290 30L1310 25L1290 30ZM1310 50L1300 70L1310 50ZM1230 110L1215 100L1230 110ZM1260 10L1250 -5L1260 10Z" fill="#60A5FA" fill-opacity="0.7"/>
<path d="M1210 20L1225 15M1240 30L1245 50M1275 10L1285 25M1220 80L1240 90M1290 60L1270 70M1250 90L1260 110M1310 100L1300 85M1205 60L1225 50M1290 30L1310 25M1310 50L1300 70M1230 110L1215 100M1260 10L1250 -5" stroke="#60A5FA" stroke-opacity="0.7" stroke-linecap="round"/>
</g>
<g clip-path="url(#clip11_42_53)">
<path d="M10 20L25 15L10 20ZM40 30L45 50L40 30ZM75 10L85 25L75 10ZM20 80L40 90L20 80ZM90 60L70 70L90 60ZM50 90L60 110L50 90ZM110 100L100 85L110 100ZM5 60L25 50L5 60ZM90 30L110 25L90 30ZM110 50L100 70L110 50ZM30 110L15 100L30 110ZM60 10L50 -5L60 10Z" fill="#60A5FA" fill-opacity="0.7"/>
<path d="M10 20L25 15M40 30L45 50M75 10L85 25M20 80L40 90M90 60L70 70M50 90L60 110M110 100L100 85M5 60L25 50M90 30L110 25M110 50L100 70M30 110L15 100M60 10L50 -5" stroke="#60A5FA" stroke-opacity="0.7" stroke-linecap="round"/>
</g>
<g clip-path="url(#clip12_42_53)">
<path d="M1210 20L1225 15L1210 20ZM1240 30L1245 50L1240 30ZM1275 10L1285 25L1275 10ZM1220 80L1240 90L1220 80ZM1290 60L1270 70L1290 60ZM1250 90L1260 110L1250 90ZM1310 100L1300 85L1310 100ZM1205 60L1225 50L1205 60ZM1290 30L1310 25L1290 30ZM1310 50L1300 70L1310 50ZM1230 110L1215 100L1230 110ZM1260 10L1250 -5L1260 10Z" fill="#60A5FA" fill-opacity="0.7"/>
<path d="M1210 20L1225 15M1240 30L1245 50M1275 10L1285 25M1220 80L1240 90M1290 60L1270 70M1250 90L1260 110M1310 100L1300 85M1205 60L1225 50M1290 30L1310 25M1310 50L1300 70M1230 110L1215 100M1260 10L1250 -5" stroke="#60A5FA" stroke-opacity="0.7" stroke-linecap="round"/>
</g>
<g clip-path="url(#clip13_42_53)">
<path d="M10 140L25 135L10 140ZM40 150L45 170L40 150ZM75 130L85 145L75 130ZM20 200L40 210L20 200ZM90 180L70 190L90 180ZM50 210L60 230L50 210ZM110 220L100 205L110 220ZM5 180L25 170L5 180ZM90 150L110 145L90 150ZM110 170L100 190L110 170ZM30 230L15 220L30 230ZM60 130L50 115L60 130Z" fill="#60A5FA" fill-opacity="0.7"/>
<path d="M10 140L25 135M40 150L45 170M75 130L85 145M20 200L40 210M90 180L70 190M50 210L60 230M110 220L100 205M5 180L25 170M90 150L110 145M110 170L100 190M30 230L15 220M60 130L50 115" stroke="#60A5FA" stroke-opacity="0.7" stroke-linecap="round"/>
</g>
<g clip-path="url(#clip14_42_53)">
<path d="M130 140L145 135L130 140ZM160 150L165 170L160 150ZM195 130L205 145L195 130ZM140 200L160 210L140 200ZM210 180L190 190L210 180ZM170 210L180 230L170 210ZM230 220L220 205L230 220ZM125 180L145 170L125 180ZM210 150L230 145L210 150ZM230 170L220 190L230 170ZM150 230L135 220L150 230ZM180 130L170 115L180 130Z" fill="#60A5FA" fill-opacity="0.7"/>
<path d="M130 140L145 135M160 150L165 170M195 130L205 145M140 200L160 210M210 180L190 190M170 210L180 230M230 220L220 205M125 180L145 170M210 150L230 145M230 170L220 190M150 230L135 220M180 130L170 115" stroke="#60A5FA" stroke-opacity="0.7" stroke-linecap="round"/>
</g>
<g clip-path="url(#clip15_42_53)">
<path d="M250 140L265 135L250 140ZM280 150L285 170L280 150ZM315 130L325 145L315 130ZM260 200L280 210L260 200ZM330 180L310 190L330 180ZM290 210L300 230L290 210ZM350 220L340 205L350 220ZM245 180L265 170L245 180ZM330 150L350 145L330 150ZM350 170L340 190L350 170ZM270 230L255 220L270 230ZM300 130L290 115L300 130Z" fill="#60A5FA" fill-opacity="0.7"/>
<path d="M250 140L265 135M280 150L285 170M315 130L325 145M260 200L280 210M330 180L310 190M290 210L300 230M350 220L340 205M245 180L265 170M330 150L350 145M350 170L340 190M270 230L255 220M300 130L290 115" stroke="#60A5FA" stroke-opacity="0.7" stroke-linecap="round"/>
</g>
<g clip-path="url(#clip16_42_53)">
<path d="M370 140L385 135L370 140ZM400 150L405 170L400 150ZM435 130L445 145L435 130ZM380 200L400 210L380 200ZM450 180L430 190L450 180ZM410 210L420 230L410 210ZM470 220L460 205L470 220ZM365 180L385 170L365 180ZM450 150L470 145L450 150ZM470 170L460 190L470 170ZM390 230L375 220L390 230ZM420 130L410 115L420 130Z" fill="#60A5FA" fill-opacity="0.7"/>
<path d="M370 140L385 135M400 150L405 170M435 130L445 145M380 200L400 210M450 180L430 190M410 210L420 230M470 220L460 205M365 180L385 170M450 150L470 145M470 170L460 190M390 230L375 220M420 130L410 115" stroke="#60A5FA" stroke-opacity="0.7" stroke-linecap="round"/>
</g>
<g clip-path="url(#clip17_42_53)">
<path d="M490 140L505 135L490 140ZM520 150L525 170L520 150ZM555 130L565 145L555 130ZM500 200L520 210L500 200ZM570 180L550 190L570 180ZM530 210L540 230L530 210ZM590 220L580 205L590 220ZM485 180L505 170L485 180ZM570 150L590 145L570 150ZM590 170L580 190L590 170ZM510 230L495 220L510 230ZM540 130L530 115L540 130Z" fill="#60A5FA" fill-opacity="0.7"/>
<path d="M490 140L505 135M520 150L525 170M555 130L565 145M500 200L520 210M570 180L550 190M530 210L540 230M590 220L580 205M485 180L505 170M570 150L590 145M590 170L580 190M510 230L495 220M540 130L530 115" stroke="#60A5FA" stroke-opacity="0.7" stroke-linecap="round"/>
</g>
<g clip-path="url(#clip18_42_53)">
<path d="M610 140L625 135L610 140ZM640 150L645 170L640 150ZM675 130L685 145L675 130ZM620 200L640 210L620 200ZM690 180L670 190L690 180ZM650 210L660 230L650 210ZM710 220L700 205L710 220ZM605 180L625 170L605 180ZM690 150L710 145L690 150ZM710 170L700 190L710 170ZM630 230L615 220L630 230ZM660 130L650 115L660 130Z" fill="#60A5FA" fill-opacity="0.7"/>
<path d="M610 140L625 135M640 150L645 170M675 130L685 145M620 200L640 210M690 180L670 190M650 210L660 230M710 220L700 205M605 180L625 170M690 150L710 145M710 170L700 190M630 230L615 220M660 130L650 115" stroke="#60A5FA" stroke-opacity="0.7" stroke-linecap="round"/>
</g>
<g clip-path="url(#clip19_42_53)">
<path d="M730 140L745 135L730 140ZM760 150L765 170L760 150ZM795 130L805 145L795 130ZM740 200L760 210L740 200ZM810 180L790 190L810 180ZM770 210L780 230L770 210ZM830 220L820 205L830 220ZM725 180L745 170L725 180ZM810 150L830 145L810 150ZM830 170L820 190L830 170ZM750 230L735 220L750 230ZM780 130L770 115L780 130Z" fill="#60A5FA" fill-opacity="0.7"/>
<path d="M730 140L745 135M760 150L765 170M795 130L805 145M740 200L760 210M810 180L790 190M770 210L780 230M830 220L820 205M725 180L745 170M810 150L830 145M830 170L820 190M750 230L735 220M780 130L770 115" stroke="#60A5FA" stroke-opacity="0.7" stroke-linecap="round"/>
</g>
<g clip-path="url(#clip20_42_53)">
<path d="M850 140L865 135L850 140ZM880 150L885 170L880 150ZM915 130L925 145L915 130ZM860 200L880 210L860 200ZM930 180L910 190L930 180ZM890 210L900 230L890 210ZM950 220L940 205L950 220ZM845 180L865 170L845 180ZM930 150L950 145L930 150ZM950 170L940 190L950 170ZM870 230L855 220L870 230ZM900 130L890 115L900 130Z" fill="#60A5FA" fill-opacity="0.7"/>
<path d="M850 140L865 135M880 150L885 170M915 130L925 145M860 200L880 210M930 180L910 190M890 210L900 230M950 220L940 205M845 180L865 170M930 150L950 145M950 170L940 190M870 230L855 220M900 130L890 115" stroke="#60A5FA" stroke-opacity="0.7" stroke-linecap="round"/>
</g>
<g clip-path="url(#clip21_42_53)">
<path d="M970 140L985 135L970 140ZM1000 150L1005 170L1000 150ZM1035 130L1045 145L1035 130ZM980 200L1000 210L980 200ZM1050 180L1030 190L1050 180ZM1010 210L1020 230L1010 210ZM1070 220L1060 205L1070 220ZM965 180L985 170L965 180ZM1050 150L1070 145L1050 150ZM1070 170L1060 190L1070 170ZM990 230L975 220L990 230ZM1020 130L1010 115L1020 130Z" fill="#60A5FA" fill-opacity="0.7"/>
<path d="M970 140L985 135M1000 150L1005 170M1035 130L1045 145M980 200L1000 210M1050 180L1030 190M1010 210L1020 230M1070 220L1060 205M965 180L985 170M1050 150L1070 145M1070 170L1060 190M990 230L975 220M1020 130L1010 115" stroke="#60A5FA" stroke-opacity="0.7" stroke-linecap="round"/>
</g>
<g clip-path="url(#clip22_42_53)">
<path d="M1090 140L1105 135L1090 140ZM1120 150L1125 170L1120 150ZM1155 130L1165 145L1155 130ZM1100 200L1120 210L1100 200ZM1170 180L1150 190L1170 180ZM1130 210L1140 230L1130 210ZM1190 220L1180 205L1190 220ZM1085 180L1105 170L1085 180ZM1170 150L1190 145L1170 150ZM1190 170L1180 190L1190 170ZM1110 230L1095 220L1110 230ZM1140 130L1130 115L1140 130Z" fill="#60A5FA" fill-opacity="0.7"/>
<path d="M1090 140L1105 135M1120 150L1125 170M1155 130L1165 145M1100 200L1120 210M1170 180L1150 190M1130 210L1140 230M1190 220L1180 205M1085 180L1105 170M1170 150L1190 145M1190 170L1180 190M1110 230L1095 220M1140 130L1130 115" stroke="#60A5FA" stroke-opacity="0.7" stroke-linecap="round"/>
</g>
<g clip-path="url(#clip23_42_53)">
<path d="M1210 140L1225 135L1210 140ZM1240 150L1245 170L1240 150ZM1275 130L1285 145L1275 130ZM1220 200L1240 210L1220 200ZM1290 180L1270 190L1290 180ZM1250 210L1260 230L1250 210ZM1310 220L1300 205L1310 220ZM1205 180L1225 170L1205 180ZM1290 150L1310 145L1290 150ZM1310 170L1300 190L1310 170ZM1230 230L1215 220L1230 230ZM1260 130L1250 115L1260 130Z" fill="#60A5FA" fill-opacity="0.7"/>
<path d="M1210 140L1225 135M1240 150L1245 170M1275 130L1285 145M1220 200L1240 210M1290 180L1270 190M1250 210L1260 230M1310 220L1300 205M1205 180L1225 170M1290 150L1310 145M1310 170L1300 190M1230 230L1215 220M1260 130L1250 115" stroke="#60A5FA" stroke-opacity="0.7" stroke-linecap="round"/>
</g>
<g clip-path="url(#clip24_42_53)">
<path d="M10 140L25 135L10 140ZM40 150L45 170L40 150ZM75 130L85 145L75 130ZM20 200L40 210L20 200ZM90 180L70 190L90 180ZM50 210L60 230L50 210ZM110 220L100 205L110 220ZM5 180L25 170L5 180ZM90 150L110 145L90 150ZM110 170L100 190L110 170ZM30 230L15 220L30 230ZM60 130L50 115L60 130Z" fill="#60A5FA" fill-opacity="0.7"/>
<path d="M10 140L25 135M40 150L45 170M75 130L85 145M20 200L40 210M90 180L70 190M50 210L60 230M110 220L100 205M5 180L25 170M90 150L110 145M110 170L100 190M30 230L15 220M60 130L50 115" stroke="#60A5FA" stroke-opacity="0.7" stroke-linecap="round"/>
</g>
<g clip-path="url(#clip25_42_53)">
<path d="M1210 140L1225 135L1210 140ZM1240 150L1245 170L1240 150ZM1275 130L1285 145L1275 130ZM1220 200L1240 210L1220 200ZM1290 180L1270 190L1290 180ZM1250 210L1260 230L1250 210ZM1310 220L1300 205L1310 220ZM1205 180L1225 170L1205 180ZM1290 150L1310 145L1290 150ZM1310 170L1300 190L1310 170ZM1230 230L1215 220L1230 230ZM1260 130L1250 115L1260 130Z" fill="#60A5FA" fill-opacity="0.7"/>
<path d="M1210 140L1225 135M1240 150L1245 170M1275 130L1285 145M1220 200L1240 210M1290 180L1270 190M1250 210L1260 230M1310 220L1300 205M1205 180L1225 170M1290 150L1310 145M1310 170L1300 190M1230 230L1215 220M1260 130L1250 115" stroke="#60A5FA" stroke-opacity="0.7" stroke-linecap="round"/>
</g>
<g clip-path="url(#clip26_42_53)">
<path d="M10 250L25 245L10 250ZM40 260L45 280L40 260ZM75 240L85 255L75 240ZM20 310L40 320L20 310ZM90 290L70 300L90 290ZM50 320L60 340L50 320ZM110 330L100 315L110 330ZM5 290L25 280L5 290ZM90 260L110 255L90 260ZM110 280L100 300L110 280ZM30 340L15 330L30 340ZM60 240L50 225L60 240Z" fill="#60A5FA" fill-opacity="0.7"/>
<path d="M10 250L25 245M40 260L45 280M75 240L85 255M20 310L40 320M90 290L70 300M50 320L60 340M110 330L100 315M5 290L25 280M90 260L110 255M110 280L100 300M30 340L15 330M60 240L50 225" stroke="#60A5FA" stroke-opacity="0.7" stroke-linecap="round"/>
</g>
<g clip-path="url(#clip27_42_53)">
<path d="M130 250L145 245L130 250ZM160 260L165 280L160 260ZM195 240L205 255L195 240ZM140 310L160 320L140 310ZM210 290L190 300L210 290ZM170 320L180 340L170 320ZM230 330L220 315L230 330ZM125 290L145 280L125 290ZM210 260L230 255L210 260ZM230 280L220 300L230 280ZM150 340L135 330L150 340ZM180 240L170 225L180 240Z" fill="#60A5FA" fill-opacity="0.7"/>
<path d="M130 250L145 245M160 260L165 280M195 240L205 255M140 310L160 320M210 290L190 300M170 320L180 340M230 330L220 315M125 290L145 280M210 260L230 255M230 280L220 300M150 340L135 330M180 240L170 225" stroke="#60A5FA" stroke-opacity="0.7" stroke-linecap="round"/>
</g>
<g clip-path="url(#clip28_42_53)">
<path d="M250 250L265 245L250 250ZM280 260L285 280L280 260ZM315 240L325 255L315 240ZM260 310L280 320L260 310ZM330 290L310 300L330 290ZM290 320L300 340L290 320ZM350 330L340 315L350 330ZM245 290L265 280L245 290ZM330 260L350 255L330 260ZM350 280L340 300L350 280ZM270 340L255 330L270 340ZM300 240L290 225L300 240Z" fill="#60A5FA" fill-opacity="0.7"/>
<path d="M250 250L265 245M280 260L285 280M315 240L325 255M260 310L280 320M330 290L310 300M290 320L300 340M350 330L340 315M245 290L265 280M330 260L350 255M350 280L340 300M270 340L255 330M300 240L290 225" stroke="#60A5FA" stroke-opacity="0.7" stroke-linecap="round"/>
</g>
<g clip-path="url(#clip29_42_53)">
<path d="M370 250L385 245L370 250ZM400 260L405 280L400 260ZM435 240L445 255L435 240ZM380 310L400 320L380 310ZM450 290L430 300L450 290ZM410 320L420 340L410 320ZM470 330L460 315L470 330ZM365 290L385 280L365 290ZM450 260L470 255L450 260ZM470 280L460 300L470 280ZM390 340L375 330L390 340ZM420 240L410 225L420 240Z" fill="#60A5FA" fill-opacity="0.7"/>
<path d="M370 250L385 245M400 260L405 280M435 240L445 255M380 310L400 320M450 290L430 300M410 320L420 340M470 330L460 315M365 290L385 280M450 260L470 255M470 280L460 300M390 340L375 330M420 240L410 225" stroke="#60A5FA" stroke-opacity="0.7" stroke-linecap="round"/>
</g>
<g clip-path="url(#clip30_42_53)">
<path d="M490 250L505 245L490 250ZM520 260L525 280L520 260ZM555 240L565 255L555 240ZM500 310L520 320L500 310ZM570 290L550 300L570 290ZM530 320L540 340L530 320ZM590 330L580 315L590 330ZM485 290L505 280L485 290ZM570 260L590 255L570 260ZM590 280L580 300L590 280ZM510 340L495 330L510 340ZM540 240L530 225L540 240Z" fill="#60A5FA" fill-opacity="0.7"/>
<path d="M490 250L505 245M520 260L525 280M555 240L565 255M500 310L520 320M570 290L550 300M530 320L540 340M590 330L580 315M485 290L505 280M570 260L590 255M590 280L580 300M510 340L495 330M540 240L530 225" stroke="#60A5FA" stroke-opacity="0.7" stroke-linecap="round"/>
</g>
<g clip-path="url(#clip31_42_53)">
<path d="M610 250L625 245L610 250ZM640 260L645 280L640 260ZM675 240L685 255L675 240ZM620 310L640 320L620 310ZM690 290L670 300L690 290ZM650 320L660 340L650 320ZM710 330L700 315L710 330ZM605 290L625 280L605 290ZM690 260L710 255L690 260ZM710 280L700 300L710 280ZM630 340L615 330L630 340ZM660 240L650 225L660 240Z" fill="#60A5FA" fill-opacity="0.7"/>
<path d="M610 250L625 245M640 260L645 280M675 240L685 255M620 310L640 320M690 290L670 300M650 320L660 340M710 330L700 315M605 290L625 280M690 260L710 255M710 280L700 300M630 340L615 330M660 240L650 225" stroke="#60A5FA" stroke-opacity="0.7" stroke-linecap="round"/>
</g>
<g clip-path="url(#clip32_42_53)">
<path d="M730 250L745 245L730 250ZM760 260L765 280L760 260ZM795 240L805 255L795 240ZM740 310L760 320L740 310ZM810 290L790 300L810 290ZM770 320L780 340L770 320ZM830 330L820 315L830 330ZM725 290L745 280L725 290ZM810 260L830 255L810 260ZM830 280L820 300L830 280ZM750 340L735 330L750 340ZM780 240L770 225L780 240Z" fill="#60A5FA" fill-opacity="0.7"/>
<path d="M730 250L745 245M760 260L765 280M795 240L805 255M740 310L760 320M810 290L790 300M770 320L780 340M830 330L820 315M725 290L745 280M810 260L830 255M830 280L820 300M750 340L735 330M780 240L770 225" stroke="#60A5FA" stroke-opacity="0.7" stroke-linecap="round"/>
</g>
<g clip-path="url(#clip33_42_53)">
<path d="M850 250L865 245L850 250ZM880 260L885 280L880 260ZM915 240L925 255L915 240ZM860 310L880 320L860 310ZM930 290L910 300L930 290ZM890 320L900 340L890 320ZM950 330L940 315L950 330ZM845 290L865 280L845 290ZM930 260L950 255L930 260ZM950 280L940 300L950 280ZM870 340L855 330L870 340ZM900 240L890 225L900 240Z" fill="#60A5FA" fill-opacity="0.7"/>
<path d="M850 250L865 245M880 260L885 280M915 240L925 255M860 310L880 320M930 290L910 300M890 320L900 340M950 330L940 315M845 290L865 280M930 260L950 255M950 280L940 300M870 340L855 330M900 240L890 225" stroke="#60A5FA" stroke-opacity="0.7" stroke-linecap="round"/>
</g>
<g clip-path="url(#clip34_42_53)">
<path d="M970 250L985 245L970 250ZM1000 260L1005 280L1000 260ZM1035 240L1045 255L1035 240ZM980 310L1000 320L980 310ZM1050 290L1030 300L1050 290ZM1010 320L1020 340L1010 320ZM1070 330L1060 315L1070 330ZM965 290L985 280L965 290ZM1050 260L1070 255L1050 260ZM1070 280L1060 300L1070 280ZM990 340L975 330L990 340ZM1020 240L1010 225L1020 240Z" fill="#60A5FA" fill-opacity="0.7"/>
<path d="M970 250L985 245M1000 260L1005 280M1035 240L1045 255M980 310L1000 320M1050 290L1030 300M1010 320L1020 340M1070 330L1060 315M965 290L985 280M1050 260L1070 255M1070 280L1060 300M990 340L975 330M1020 240L1010 225" stroke="#60A5FA" stroke-opacity="0.7" stroke-linecap="round"/>
</g>
<g clip-path="url(#clip35_42_53)">
<path d="M1090 250L1105 245L1090 250ZM1120 260L1125 280L1120 260ZM1155 240L1165 255L1155 240ZM1100 310L1120 320L1100 310ZM1170 290L1150 300L1170 290ZM1130 320L1140 340L1130 320ZM1190 330L1180 315L1190 330ZM1085 290L1105 280L1085 290ZM1170 260L1190 255L1170 260ZM1190 280L1180 300L1190 280ZM1110 340L1095 330L1110 340ZM1140 240L1130 225L1140 240Z" fill="#60A5FA" fill-opacity="0.7"/>
<path d="M1090 250L1105 245M1120 260L1125 280M1155 240L1165 255M1100 310L1120 320M1170 290L1150 300M1130 320L1140 340M1190 330L1180 315M1085 290L1105 280M1170 260L1190 255M1190 280L1180 300M1110 340L1095 330M1140 240L1130 225" stroke="#60A5FA" stroke-opacity="0.7" stroke-linecap="round"/>
</g>
<g clip-path="url(#clip36_42_53)">
<path d="M1210 250L1225 245L1210 250ZM1240 260L1245 280L1240 260ZM1275 240L1285 255L1275 240ZM1220 310L1240 320L1220 310ZM1290 290L1270 300L1290 290ZM1250 320L1260 340L1250 320ZM1310 330L1300 315L1310 330ZM1205 290L1225 280L1205 290ZM1290 260L1310 255L1290 260ZM1310 280L1300 300L1310 280ZM1230 340L1215 330L1230 340ZM1260 240L1250 225L1260 240Z" fill="#60A5FA" fill-opacity="0.7"/>
<path d="M1210 250L1225 245M1240 260L1245 280M1275 240L1285 255M1220 310L1240 320M1290 290L1270 300M1250 320L1260 340M1310 330L1300 315M1205 290L1225 280M1290 260L1310 255M1310 280L1300 300M1230 340L1215 330M1260 240L1250 225" stroke="#60A5FA" stroke-opacity="0.7" stroke-linecap="round"/>
</g>
<g clip-path="url(#clip37_42_53)">
<path d="M10 250L25 245L10 250ZM40 260L45 280L40 260ZM75 240L85 255L75 240ZM20 310L40 320L20 310ZM90 290L70 300L90 290ZM50 320L60 340L50 320ZM110 330L100 315L110 330ZM5 290L25 280L5 290ZM90 260L110 255L90 260ZM110 280L100 300L110 280ZM30 340L15 330L30 340ZM60 240L50 225L60 240Z" fill="#60A5FA" fill-opacity="0.7"/>
<path d="M10 250L25 245M40 260L45 280M75 240L85 255M20 310L40 320M90 290L70 300M50 320L60 340M110 330L100 315M5 290L25 280M90 260L110 255M110 280L100 300M30 340L15 330M60 240L50 225" stroke="#60A5FA" stroke-opacity="0.7" stroke-linecap="round"/>
</g>
<g clip-path="url(#clip38_42_53)">
<path d="M1210 250L1225 245L1210 250ZM1240 260L1245 280L1240 260ZM1275 240L1285 255L1275 240ZM1220 310L1240 320L1220 310ZM1290 290L1270 300L1290 290ZM1250 320L1260 340L1250 320ZM1310 330L1300 315L1310 330ZM1205 290L1225 280L1205 290ZM1290 260L1310 255L1290 260ZM1310 280L1300 300L1310 280ZM1230 340L1215 330L1230 340ZM1260 240L1250 225L1260 240Z" fill="#60A5FA" fill-opacity="0.7"/>
<path d="M1210 250L1225 245M1240 260L1245 280M1275 240L1285 255M1220 310L1240 320M1290 290L1270 300M1250 320L1260 340M1310 330L1300 315M1205 290L1225 280M1290 260L1310 255M1310 280L1300 300M1230 340L1215 330M1260 240L1250 225" stroke="#60A5FA" stroke-opacity="0.7" stroke-linecap="round"/>
</g>
<g clip-path="url(#clip39_42_53)">
<path d="M10 250L25 245L10 250ZM40 260L45 280L40 260ZM75 240L85 255L75 240ZM20 310L40 320L20 310ZM90 290L70 300L90 290ZM50 320L60 340L50 320ZM110 330L100 315L110 330ZM5 290L25 280L5 290ZM90 260L110 255L90 260ZM110 280L100 300L110 280ZM30 340L15 330L30 340ZM60 240L50 225L60 240Z" fill="#60A5FA" fill-opacity="0.7"/>
<path d="M10 250L25 245M40 260L45 280M75 240L85 255M20 310L40 320M90 290L70 300M50 320L60 340M110 330L100 315M5 290L25 280M90 260L110 255M110 280L100 300M30 340L15 330M60 240L50 225" stroke="#60A5FA" stroke-opacity="0.7" stroke-linecap="round"/>
</g>
<g clip-path="url(#clip40_42_53)">
<path d="M130 250L145 245L130 250ZM160 260L165 280L160 260ZM195 240L205 255L195 240ZM140 310L160 320L140 310ZM210 290L190 300L210 290ZM170 320L180 340L170 320ZM230 330L220 315L230 330ZM125 290L145 280L125 290ZM210 260L230 255L210 260ZM230 280L220 300L230 280ZM150 340L135 330L150 340ZM180 240L170 225L180 240Z" fill="#60A5FA" fill-opacity="0.7"/>
<path d="M130 250L145 245M160 260L165 280M195 240L205 255M140 310L160 320M210 290L190 300M170 320L180 340M230 330L220 315M125 290L145 280M210 260L230 255M230 280L220 300M150 340L135 330M180 240L170 225" stroke="#60A5FA" stroke-opacity="0.7" stroke-linecap="round"/>
</g>
<g clip-path="url(#clip41_42_53)">
<path d="M250 250L265 245L250 250ZM280 260L285 280L280 260ZM315 240L325 255L315 240ZM260 310L280 320L260 310ZM330 290L310 300L330 290ZM290 320L300 340L290 320ZM350 330L340 315L350 330ZM245 290L265 280L245 290ZM330 260L350 255L330 260ZM350 280L340 300L350 280ZM270 340L255 330L270 340ZM300 240L290 225L300 240Z" fill="#60A5FA" fill-opacity="0.7"/>
<path d="M250 250L265 245M280 260L285 280M315 240L325 255M260 310L280 320M330 290L310 300M290 320L300 340M350 330L340 315M245 290L265 280M330 260L350 255M350 280L340 300M270 340L255 330M300 240L290 225" stroke="#60A5FA" stroke-opacity="0.7" stroke-linecap="round"/>
</g>
<g clip-path="url(#clip42_42_53)">
<path d="M370 250L385 245L370 250ZM400 260L405 280L400 260ZM435 240L445 255L435 240ZM380 310L400 320L380 310ZM450 290L430 300L450 290ZM410 320L420 340L410 320ZM470 330L460 315L470 330ZM365 290L385 280L365 290ZM450 260L470 255L450 260ZM470 280L460 300L470 280ZM390 340L375 330L390 340ZM420 240L410 225L420 240Z" fill="#60A5FA" fill-opacity="0.7"/>
<path d="M370 250L385 245M400 260L405 280M435 240L445 255M380 310L400 320M450 290L430 300M410 320L420 340M470 330L460 315M365 290L385 280M450 260L470 255M470 280L460 300M390 340L375 330M420 240L410 225" stroke="#60A5FA" stroke-opacity="0.7" stroke-linecap="round"/>
</g>
<g clip-path="url(#clip43_42_53)">
<path d="M490 250L505 245L490 250ZM520 260L525 280L520 260ZM555 240L565 255L555 240ZM500 310L520 320L500 310ZM570 290L550 300L570 290ZM530 320L540 340L530 320ZM590 330L580 315L590 330ZM485 290L505 280L485 290ZM570 260L590 255L570 260ZM590 280L580 300L590 280ZM510 340L495 330L510 340ZM540 240L530 225L540 240Z" fill="#60A5FA" fill-opacity="0.7"/>
<path d="M490 250L505 245M520 260L525 280M555 240L565 255M500 310L520 320M570 290L550 300M530 320L540 340M590 330L580 315M485 290L505 280M570 260L590 255M590 280L580 300M510 340L495 330M540 240L530 225" stroke="#60A5FA" stroke-opacity="0.7" stroke-linecap="round"/>
</g>
<g clip-path="url(#clip44_42_53)">
<path d="M610 250L625 245L610 250ZM640 260L645 280L640 260ZM675 240L685 255L675 240ZM620 310L640 320L620 310ZM690 290L670 300L690 290ZM650 320L660 340L650 320ZM710 330L700 315L710 330ZM605 290L625 280L605 290ZM690 260L710 255L690 260ZM710 280L700 300L710 280ZM630 340L615 330L630 340ZM660 240L650 225L660 240Z" fill="#60A5FA" fill-opacity="0.7"/>
<path d="M610 250L625 245M640 260L645 280M675 240L685 255M620 310L640 320M690 290L670 300M650 320L660 340M710 330L700 315M605 290L625 280M690 260L710 255M710 280L700 300M630 340L615 330M660 240L650 225" stroke="#60A5FA" stroke-opacity="0.7" stroke-linecap="round"/>
</g>
<g clip-path="url(#clip45_42_53)">
<path d="M730 250L745 245L730 250ZM760 260L765 280L760 260ZM795 240L805 255L795 240ZM740 310L760 320L740 310ZM810 290L790 300L810 290ZM770 320L780 340L770 320ZM830 330L820 315L830 330ZM725 290L745 280L725 290ZM810 260L830 255L810 260ZM830 280L820 300L830 280ZM750 340L735 330L750 340ZM780 240L770 225L780 240Z" fill="#60A5FA" fill-opacity="0.7"/>
<path d="M730 250L745 245M760 260L765 280M795 240L805 255M740 310L760 320M810 290L790 300M770 320L780 340M830 330L820 315M725 290L745 280M810 260L830 255M830 280L820 300M750 340L735 330M780 240L770 225" stroke="#60A5FA" stroke-opacity="0.7" stroke-linecap="round"/>
</g>
<g clip-path="url(#clip46_42_53)">
<path d="M850 250L865 245L850 250ZM880 260L885 280L880 260ZM915 240L925 255L915 240ZM860 310L880 320L860 310ZM930 290L910 300L930 290ZM890 320L900 340L890 320ZM950 330L940 315L950 330ZM845 290L865 280L845 290ZM930 260L950 255L930 260ZM950 280L940 300L950 280ZM870 340L855 330L870 340ZM900 240L890 225L900 240Z" fill="#60A5FA" fill-opacity="0.7"/>
<path d="M850 250L865 245M880 260L885 280M915 240L925 255M860 310L880 320M930 290L910 300M890 320L900 340M950 330L940 315M845 290L865 280M930 260L950 255M950 280L940 300M870 340L855 330M900 240L890 225" stroke="#60A5FA" stroke-opacity="0.7" stroke-linecap="round"/>
</g>
<g clip-path="url(#clip47_42_53)">
<path d="M970 250L985 245L970 250ZM1000 260L1005 280L1000 260ZM1035 240L1045 255L1035 240ZM980 310L1000 320L980 310ZM1050 290L1030 300L1050 290ZM1010 320L1020 340L1010 320ZM1070 330L1060 315L1070 330ZM965 290L985 280L965 290ZM1050 260L1070 255L1050 260ZM1070 280L1060 300L1070 280ZM990 340L975 330L990 340ZM1020 240L1010 225L1020 240Z" fill="#60A5FA" fill-opacity="0.7"/>
<path d="M970 250L985 245M1000 260L1005 280M1035 240L1045 255M980 310L1000 320M1050 290L1030 300M1010 320L1020 340M1070 330L1060 315M965 290L985 280M1050 260L1070 255M1070 280L1060 300M990 340L975 330M1020 240L1010 225" stroke="#60A5FA" stroke-opacity="0.7" stroke-linecap="round"/>
</g>
<g clip-path="url(#clip48_42_53)">
<path d="M1090 250L1105 245L1090 250ZM1120 260L1125 280L1120 260ZM1155 240L1165 255L1155 240ZM1100 310L1120 320L1100 310ZM1170 290L1150 300L1170 290ZM1130 320L1140 340L1130 320ZM1190 330L1180 315L1190 330ZM1085 290L1105 280L1085 290ZM1170 260L1190 255L1170 260ZM1190 280L1180 300L1190 280ZM1110 340L1095 330L1110 340ZM1140 240L1130 225L1140 240Z" fill="#60A5FA" fill-opacity="0.7"/>
<path d="M1090 250L1105 245M1120 260L1125 280M1155 240L1165 255M1100 310L1120 320M1170 290L1150 300M1130 320L1140 340M1190 330L1180 315M1085 290L1105 280M1170 260L1190 255M1190 280L1180 300M1110 340L1095 330M1140 240L1130 225" stroke="#60A5FA" stroke-opacity="0.7" stroke-linecap="round"/>
</g>
<g clip-path="url(#clip49_42_53)">
<path d="M1210 250L1225 245L1210 250ZM1240 260L1245 280L1240 260ZM1275 240L1285 255L1275 240ZM1220 310L1240 320L1220 310ZM1290 290L1270 300L1290 290ZM1250 320L1260 340L1250 320ZM1310 330L1300 315L1310 330ZM1205 290L1225 280L1205 290ZM1290 260L1310 255L1290 260ZM1310 280L1300 300L1310 280ZM1230 340L1215 330L1230 340ZM1260 240L1250 225L1260 240Z" fill="#60A5FA" fill-opacity="0.7"/>
<path d="M1210 250L1225 245M1240 260L1245 280M1275 240L1285 255M1220 310L1240 320M1290 290L1270 300M1250 320L1260 340M1310 330L1300 315M1205 290L1225 280M1290 260L1310 255M1310 280L1300 300M1230 340L1215 330M1260 240L1250 225" stroke="#60A5FA" stroke-opacity="0.7" stroke-linecap="round"/>
</g>
<g clip-path="url(#clip50_42_53)">
<path d="M10 250L25 245L10 250ZM40 260L45 280L40 260ZM75 240L85 255L75 240ZM20 310L40 320L20 310ZM90 290L70 300L90 290ZM50 320L60 340L50 320ZM110 330L100 315L110 330ZM5 290L25 280L5 290ZM90 260L110 255L90 260ZM110 280L100 300L110 280ZM30 340L15 330L30 340ZM60 240L50 225L60 240Z" fill="#60A5FA" fill-opacity="0.7"/>
<path d="M10 250L25 245M40 260L45 280M75 240L85 255M20 310L40 320M90 290L70 300M50 320L60 340M110 330L100 315M5 290L25 280M90 260L110 255M110 280L100 300M30 340L15 330M60 240L50 225" stroke="#60A5FA" stroke-opacity="0.7" stroke-linecap="round"/>
</g>
<g clip-path="url(#clip51_42_53)">
<path d="M1210 250L1225 245L1210 250ZM1240 260L1245 280L1240 260ZM1275 240L1285 255L1275 240ZM1220 310L1240 320L1220 310ZM1290 290L1270 300L1290 290ZM1250 320L1260 340L1250 320ZM1310 330L1300 315L1310 330ZM1205 290L1225 280L1205 290ZM1290 260L1310 255L1290 260ZM1310 280L1300 300L1310 280ZM1230 340L1215 330L1230 340ZM1260 240L1250 225L1260 240Z" fill="#60A5FA" fill-opacity="0.7"/>
<path d="M1210 250L1225 245M1240 260L1245 280M1275 240L1285 255M1220 310L1240 320M1290 290L1270 300M1250 320L1260 340M1310 330L1300 315M1205 290L1225 280M1290 260L1310 255M1310 280L1300 300M1230 340L1215 330M1260 240L1250 225" stroke="#60A5FA" stroke-opacity="0.7" stroke-linecap="round"/>
</g>
<g clip-path="url(#clip52_42_53)">
<path d="M10 370L25 365L10 370ZM40 380L45 400L40 380ZM75 360L85 375L75 360ZM20 430L40 440L20 430ZM90 410L70 420L90 410ZM50 440L60 460L50 440ZM110 450L100 435L110 450ZM5 410L25 400L5 410ZM90 380L110 375L90 380ZM110 400L100 420L110 400ZM30 460L15 450L30 460ZM60 360L50 345L60 360Z" fill="#60A5FA" fill-opacity="0.7"/>
<path d="M10 370L25 365M40 380L45 400M75 360L85 375M20 430L40 440M90 410L70 420M50 440L60 460M110 450L100 435M5 410L25 400M90 380L110 375M110 400L100 420M30 460L15 450M60 360L50 345" stroke="#60A5FA" stroke-opacity="0.7" stroke-linecap="round"/>
</g>
<g clip-path="url(#clip53_42_53)">
<path d="M130 370L145 365L130 370ZM160 380L165 400L160 380ZM195 360L205 375L195 360ZM140 430L160 440L140 430ZM210 410L190 420L210 410ZM170 440L180 460L170 440ZM230 450L220 435L230 450ZM125 410L145 400L125 410ZM210 380L230 375L210 380ZM230 400L220 420L230 400ZM150 460L135 450L150 460ZM180 360L170 345L180 360Z" fill="#60A5FA" fill-opacity="0.7"/>
<path d="M130 370L145 365M160 380L165 400M195 360L205 375M140 430L160 440M210 410L190 420M170 440L180 460M230 450L220 435M125 410L145 400M210 380L230 375M230 400L220 420M150 460L135 450M180 360L170 345" stroke="#60A5FA" stroke-opacity="0.7" stroke-linecap="round"/>
</g>
<g clip-path="url(#clip54_42_53)">
<path d="M250 370L265 365L250 370ZM280 380L285 400L280 380ZM315 360L325 375L315 360ZM260 430L280 440L260 430ZM330 410L310 420L330 410ZM290 440L300 460L290 440ZM350 450L340 435L350 450ZM245 410L265 400L245 410ZM330 380L350 375L330 380ZM350 400L340 420L350 400ZM270 460L255 450L270 460ZM300 360L290 345L300 360Z" fill="#60A5FA" fill-opacity="0.7"/>
<path d="M250 370L265 365M280 380L285 400M315 360L325 375M260 430L280 440M330 410L310 420M290 440L300 460M350 450L340 435M245 410L265 400M330 380L350 375M350 400L340 420M270 460L255 450M300 360L290 345" stroke="#60A5FA" stroke-opacity="0.7" stroke-linecap="round"/>
</g>
<g clip-path="url(#clip55_42_53)">
<path d="M370 370L385 365L370 370ZM400 380L405 400L400 380ZM435 360L445 375L435 360ZM380 430L400 440L380 430ZM450 410L430 420L450 410ZM410 440L420 460L410 440ZM470 450L460 435L470 450ZM365 410L385 400L365 410ZM450 380L470 375L450 380ZM470 400L460 420L470 400ZM390 460L375 450L390 460ZM420 360L410 345L420 360Z" fill="#60A5FA" fill-opacity="0.7"/>
<path d="M370 370L385 365M400 380L405 400M435 360L445 375M380 430L400 440M450 410L430 420M410 440L420 460M470 450L460 435M365 410L385 400M450 380L470 375M470 400L460 420M390 460L375 450M420 360L410 345" stroke="#60A5FA" stroke-opacity="0.7" stroke-linecap="round"/>
</g>
<g clip-path="url(#clip56_42_53)">
<path d="M490 370L505 365L490 370ZM520 380L525 400L520 380ZM555 360L565 375L555 360ZM500 430L520 440L500 430ZM570 410L550 420L570 410ZM530 440L540 460L530 440ZM590 450L580 435L590 450ZM485 410L505 400L485 410ZM570 380L590 375L570 380ZM590 400L580 420L590 400ZM510 460L495 450L510 460ZM540 360L530 345L540 360Z" fill="#60A5FA" fill-opacity="0.7"/>
<path d="M490 370L505 365M520 380L525 400M555 360L565 375M500 430L520 440M570 410L550 420M530 440L540 460M590 450L580 435M485 410L505 400M570 380L590 375M590 400L580 420M510 460L495 450M540 360L530 345" stroke="#60A5FA" stroke-opacity="0.7" stroke-linecap="round"/>
</g>
<g clip-path="url(#clip57_42_53)">
<path d="M610 370L625 365L610 370ZM640 380L645 400L640 380ZM675 360L685 375L675 360ZM620 430L640 440L620 430ZM690 410L670 420L690 410ZM650 440L660 460L650 440ZM710 450L700 435L710 450ZM605 410L625 400L605 410ZM690 380L710 375L690 380ZM710 400L700 420L710 400ZM630 460L615 450L630 460ZM660 360L650 345L660 360Z" fill="#60A5FA" fill-opacity="0.7"/>
<path d="M610 370L625 365M640 380L645 400M675 360L685 375M620 430L640 440M690 410L670 420M650 440L660 460M710 450L700 435M605 410L625 400M690 380L710 375M710 400L700 420M630 460L615 450M660 360L650 345" stroke="#60A5FA" stroke-opacity="0.7" stroke-linecap="round"/>
</g>
<g clip-path="url(#clip58_42_53)">
<path d="M730 370L745 365L730 370ZM760 380L765 400L760 380ZM795 360L805 375L795 360ZM740 430L760 440L740 430ZM810 410L790 420L810 410ZM770 440L780 460L770 440ZM830 450L820 435L830 450ZM725 410L745 400L725 410ZM810 380L830 375L810 380ZM830 400L820 420L830 400ZM750 460L735 450L750 460ZM780 360L770 345L780 360Z" fill="#60A5FA" fill-opacity="0.7"/>
<path d="M730 370L745 365M760 380L765 400M795 360L805 375M740 430L760 440M810 410L790 420M770 440L780 460M830 450L820 435M725 410L745 400M810 380L830 375M830 400L820 420M750 460L735 450M780 360L770 345" stroke="#60A5FA" stroke-opacity="0.7" stroke-linecap="round"/>
</g>
<g clip-path="url(#clip59_42_53)">
<path d="M850 370L865 365L850 370ZM880 380L885 400L880 380ZM915 360L925 375L915 360ZM860 430L880 440L860 430ZM930 410L910 420L930 410ZM890 440L900 460L890 440ZM950 450L940 435L950 450ZM845 410L865 400L845 410ZM930 380L950 375L930 380ZM950 400L940 420L950 400ZM870 460L855 450L870 460ZM900 360L890 345L900 360Z" fill="#60A5FA" fill-opacity="0.7"/>
<path d="M850 370L865 365M880 380L885 400M915 360L925 375M860 430L880 440M930 410L910 420M890 440L900 460M950 450L940 435M845 410L865 400M930 380L950 375M950 400L940 420M870 460L855 450M900 360L890 345" stroke="#60A5FA" stroke-opacity="0.7" stroke-linecap="round"/>
</g>
<g clip-path="url(#clip60_42_53)">
<path d="M970 370L985 365L970 370ZM1000 380L1005 400L1000 380ZM1035 360L1045 375L1035 360ZM980 430L1000 440L980 430ZM1050 410L1030 420L1050 410ZM1010 440L1020 460L1010 440ZM1070 450L1060 435L1070 450ZM965 410L985 400L965 410ZM1050 380L1070 375L1050 380ZM1070 400L1060 420L1070 400ZM990 460L975 450L990 460ZM1020 360L1010 345L1020 360Z" fill="#60A5FA" fill-opacity="0.7"/>
<path d="M970 370L985 365M1000 380L1005 400M1035 360L1045 375M980 430L1000 440M1050 410L1030 420M1010 440L1020 460M1070 450L1060 435M965 410L985 400M1050 380L1070 375M1070 400L1060 420M990 460L975 450M1020 360L1010 345" stroke="#60A5FA" stroke-opacity="0.7" stroke-linecap="round"/>
</g>
<g clip-path="url(#clip61_42_53)">
<path d="M1090 370L1105 365L1090 370ZM1120 380L1125 400L1120 380ZM1155 360L1165 375L1155 360ZM1100 430L1120 440L1100 430ZM1170 410L1150 420L1170 410ZM1130 440L1140 460L1130 440ZM1190 450L1180 435L1190 450ZM1085 410L1105 400L1085 410ZM1170 380L1190 375L1170 380ZM1190 400L1180 420L1190 400ZM1110 460L1095 450L1110 460ZM1140 360L1130 345L1140 360Z" fill="#60A5FA" fill-opacity="0.7"/>
<path d="M1090 370L1105 365M1120 380L1125 400M1155 360L1165 375M1100 430L1120 440M1170 410L1150 420M1130 440L1140 460M1190 450L1180 435M1085 410L1105 400M1170 380L1190 375M1190 400L1180 420M1110 460L1095 450M1140 360L1130 345" stroke="#60A5FA" stroke-opacity="0.7" stroke-linecap="round"/>
</g>
<g clip-path="url(#clip62_42_53)">
<path d="M1210 370L1225 365L1210 370ZM1240 380L1245 400L1240 380ZM1275 360L1285 375L1275 360ZM1220 430L1240 440L1220 430ZM1290 410L1270 420L1290 410ZM1250 440L1260 460L1250 440ZM1310 450L1300 435L1310 450ZM1205 410L1225 400L1205 410ZM1290 380L1310 375L1290 380ZM1310 400L1300 420L1310 400ZM1230 460L1215 450L1230 460ZM1260 360L1250 345L1260 360Z" fill="#60A5FA" fill-opacity="0.7"/>
<path d="M1210 370L1225 365M1240 380L1245 400M1275 360L1285 375M1220 430L1240 440M1290 410L1270 420M1250 440L1260 460M1310 450L1300 435M1205 410L1225 400M1290 380L1310 375M1310 400L1300 420M1230 460L1215 450M1260 360L1250 345" stroke="#60A5FA" stroke-opacity="0.7" stroke-linecap="round"/>
</g>
<g clip-path="url(#clip63_42_53)">
<path d="M10 370L25 365L10 370ZM40 380L45 400L40 380ZM75 360L85 375L75 360ZM20 430L40 440L20 430ZM90 410L70 420L90 410ZM50 440L60 460L50 440ZM110 450L100 435L110 450ZM5 410L25 400L5 410ZM90 380L110 375L90 380ZM110 400L100 420L110 400ZM30 460L15 450L30 460ZM60 360L50 345L60 360Z" fill="#60A5FA" fill-opacity="0.7"/>
<path d="M10 370L25 365M40 380L45 400M75 360L85 375M20 430L40 440M90 410L70 420M50 440L60 460M110 450L100 435M5 410L25 400M90 380L110 375M110 400L100 420M30 460L15 450M60 360L50 345" stroke="#60A5FA" stroke-opacity="0.7" stroke-linecap="round"/>
</g>
<g clip-path="url(#clip64_42_53)">
<path d="M1210 370L1225 365L1210 370ZM1240 380L1245 400L1240 380ZM1275 360L1285 375L1275 360ZM1220 430L1240 440L1220 430ZM1290 410L1270 420L1290 410ZM1250 440L1260 460L1250 440ZM1310 450L1300 435L1310 450ZM1205 410L1225 400L1205 410ZM1290 380L1310 375L1290 380ZM1310 400L1300 420L1310 400ZM1230 460L1215 450L1230 460ZM1260 360L1250 345L1260 360Z" fill="#60A5FA" fill-opacity="0.7"/>
<path d="M1210 370L1225 365M1240 380L1245 400M1275 360L1285 375M1220 430L1240 440M1290 410L1270 420M1250 440L1260 460M1310 450L1300 435M1205 410L1225 400M1290 380L1310 375M1310 400L1300 420M1230 460L1215 450M1260 360L1250 345" stroke="#60A5FA" stroke-opacity="0.7" stroke-linecap="round"/>
</g>
<g clip-path="url(#clip65_42_53)">
<path d="M10 490L25 485L10 490ZM40 500L45 520L40 500ZM75 480L85 495L75 480ZM20 550L40 560L20 550ZM90 530L70 540L90 530ZM50 560L60 580L50 560ZM110 570L100 555L110 570ZM5 530L25 520L5 530ZM90 500L110 495L90 500ZM110 520L100 540L110 520ZM30 580L15 570L30 580ZM60 480L50 465L60 480Z" fill="#60A5FA" fill-opacity="0.7"/>
<path d="M10 490L25 485M40 500L45 520M75 480L85 495M20 550L40 560M90 530L70 540M50 560L60 580M110 570L100 555M5 530L25 520M90 500L110 495M110 520L100 540M30 580L15 570M60 480L50 465" stroke="#60A5FA" stroke-opacity="0.7" stroke-linecap="round"/>
</g>
<g clip-path="url(#clip66_42_53)">
<path d="M130 490L145 485L130 490ZM160 500L165 520L160 500ZM195 480L205 495L195 480ZM140 550L160 560L140 550ZM210 530L190 540L210 530ZM170 560L180 580L170 560ZM230 570L220 555L230 570ZM125 530L145 520L125 530ZM210 500L230 495L210 500ZM230 520L220 540L230 520ZM150 580L135 570L150 580ZM180 480L170 465L180 480Z" fill="#60A5FA" fill-opacity="0.7"/>
<path d="M130 490L145 485M160 500L165 520M195 480L205 495M140 550L160 560M210 530L190 540M170 560L180 580M230 570L220 555M125 530L145 520M210 500L230 495M230 520L220 540M150 580L135 570M180 480L170 465" stroke="#60A5FA" stroke-opacity="0.7" stroke-linecap="round"/>
</g>
<g clip-path="url(#clip67_42_53)">
<path d="M250 490L265 485L250 490ZM280 500L285 520L280 500ZM315 480L325 495L315 480ZM260 550L280 560L260 550ZM330 530L310 540L330 530ZM290 560L300 580L290 560ZM350 570L340 555L350 570ZM245 530L265 520L245 530ZM330 500L350 495L330 500ZM350 520L340 540L350 520ZM270 580L255 570L270 580ZM300 480L290 465L300 480Z" fill="#60A5FA" fill-opacity="0.7"/>
<path d="M250 490L265 485M280 500L285 520M315 480L325 495M260 550L280 560M330 530L310 540M290 560L300 580M350 570L340 555M245 530L265 520M330 500L350 495M350 520L340 540M270 580L255 570M300 480L290 465" stroke="#60A5FA" stroke-opacity="0.7" stroke-linecap="round"/>
</g>
<g clip-path="url(#clip68_42_53)">
<path d="M370 490L385 485L370 490ZM400 500L405 520L400 500ZM435 480L445 495L435 480ZM380 550L400 560L380 550ZM450 530L430 540L450 530ZM410 560L420 580L410 560ZM470 570L460 555L470 570ZM365 530L385 520L365 530ZM450 500L470 495L450 500ZM470 520L460 540L470 520ZM390 580L375 570L390 580ZM420 480L410 465L420 480Z" fill="#60A5FA" fill-opacity="0.7"/>
<path d="M370 490L385 485M400 500L405 520M435 480L445 495M380 550L400 560M450 530L430 540M410 560L420 580M470 570L460 555M365 530L385 520M450 500L470 495M470 520L460 540M390 580L375 570M420 480L410 465" stroke="#60A5FA" stroke-opacity="0.7" stroke-linecap="round"/>
</g>
<g clip-path="url(#clip69_42_53)">
<path d="M490 490L505 485L490 490ZM520 500L525 520L520 500ZM555 480L565 495L555 480ZM500 550L520 560L500 550ZM570 530L550 540L570 530ZM530 560L540 580L530 560ZM590 570L580 555L590 570ZM485 530L505 520L485 530ZM570 500L590 495L570 500ZM590 520L580 540L590 520ZM510 580L495 570L510 580ZM540 480L530 465L540 480Z" fill="#60A5FA" fill-opacity="0.7"/>
<path d="M490 490L505 485M520 500L525 520M555 480L565 495M500 550L520 560M570 530L550 540M530 560L540 580M590 570L580 555M485 530L505 520M570 500L590 495M590 520L580 540M510 580L495 570M540 480L530 465" stroke="#60A5FA" stroke-opacity="0.7" stroke-linecap="round"/>
</g>
<g clip-path="url(#clip70_42_53)">
<path d="M610 490L625 485L610 490ZM640 500L645 520L640 500ZM675 480L685 495L675 480ZM620 550L640 560L620 550ZM690 530L670 540L690 530ZM650 560L660 580L650 560ZM710 570L700 555L710 570ZM605 530L625 520L605 530ZM690 500L710 495L690 500ZM710 520L700 540L710 520ZM630 580L615 570L630 580ZM660 480L650 465L660 480Z" fill="#60A5FA" fill-opacity="0.7"/>
<path d="M610 490L625 485M640 500L645 520M675 480L685 495M620 550L640 560M690 530L670 540M650 560L660 580M710 570L700 555M605 530L625 520M690 500L710 495M710 520L700 540M630 580L615 570M660 480L650 465" stroke="#60A5FA" stroke-opacity="0.7" stroke-linecap="round"/>
</g>
<g clip-path="url(#clip71_42_53)">
<path d="M730 490L745 485L730 490ZM760 500L765 520L760 500ZM795 480L805 495L795 480ZM740 550L760 560L740 550ZM810 530L790 540L810 530ZM770 560L780 580L770 560ZM830 570L820 555L830 570ZM725 530L745 520L725 530ZM810 500L830 495L810 500ZM830 520L820 540L830 520ZM750 580L735 570L750 580ZM780 480L770 465L780 480Z" fill="#60A5FA" fill-opacity="0.7"/>
<path d="M730 490L745 485M760 500L765 520M795 480L805 495M740 550L760 560M810 530L790 540M770 560L780 580M830 570L820 555M725 530L745 520M810 500L830 495M830 520L820 540M750 580L735 570M780 480L770 465" stroke="#60A5FA" stroke-opacity="0.7" stroke-linecap="round"/>
</g>
<g clip-path="url(#clip72_42_53)">
<path d="M850 490L865 485L850 490ZM880 500L885 520L880 500ZM915 480L925 495L915 480ZM860 550L880 560L860 550ZM930 530L910 540L930 530ZM890 560L900 580L890 560ZM950 570L940 555L950 570ZM845 530L865 520L845 530ZM930 500L950 495L930 500ZM950 520L940 540L950 520ZM870 580L855 570L870 580ZM900 480L890 465L900 480Z" fill="#60A5FA" fill-opacity="0.7"/>
<path d="M850 490L865 485M880 500L885 520M915 480L925 495M860 550L880 560M930 530L910 540M890 560L900 580M950 570L940 555M845 530L865 520M930 500L950 495M950 520L940 540M870 580L855 570M900 480L890 465" stroke="#60A5FA" stroke-opacity="0.7" stroke-linecap="round"/>
</g>
<g clip-path="url(#clip73_42_53)">
<path d="M970 490L985 485L970 490ZM1000 500L1005 520L1000 500ZM1035 480L1045 495L1035 480ZM980 550L1000 560L980 550ZM1050 530L1030 540L1050 530ZM1010 560L1020 580L1010 560ZM1070 570L1060 555L1070 570ZM965 530L985 520L965 530ZM1050 500L1070 495L1050 500ZM1070 520L1060 540L1070 520ZM990 580L975 570L990 580ZM1020 480L1010 465L1020 480Z" fill="#60A5FA" fill-opacity="0.7"/>
<path d="M970 490L985 485M1000 500L1005 520M1035 480L1045 495M980 550L1000 560M1050 530L1030 540M1010 560L1020 580M1070 570L1060 555M965 530L985 520M1050 500L1070 495M1070 520L1060 540M990 580L975 570M1020 480L1010 465" stroke="#60A5FA" stroke-opacity="0.7" stroke-linecap="round"/>
</g>
<g clip-path="url(#clip74_42_53)">
<path d="M1090 490L1105 485L1090 490ZM1120 500L1125 520L1120 500ZM1155 480L1165 495L1155 480ZM1100 550L1120 560L1100 550ZM1170 530L1150 540L1170 530ZM1130 560L1140 580L1130 560ZM1190 570L1180 555L1190 570ZM1085 530L1105 520L1085 530ZM1170 500L1190 495L1170 500ZM1190 520L1180 540L1190 520ZM1110 580L1095 570L1110 580ZM1140 480L1130 465L1140 480Z" fill="#60A5FA" fill-opacity="0.7"/>
<path d="M1090 490L1105 485M1120 500L1125 520M1155 480L1165 495M1100 550L1120 560M1170 530L1150 540M1130 560L1140 580M1190 570L1180 555M1085 530L1105 520M1170 500L1190 495M1190 520L1180 540M1110 580L1095 570M1140 480L1130 465" stroke="#60A5FA" stroke-opacity="0.7" stroke-linecap="round"/>
</g>
<g clip-path="url(#clip75_42_53)">
<path d="M1210 490L1225 485L1210 490ZM1240 500L1245 520L1240 500ZM1275 480L1285 495L1275 480ZM1220 550L1240 560L1220 550ZM1290 530L1270 540L1290 530ZM1250 560L1260 580L1250 560ZM1310 570L1300 555L1310 570ZM1205 530L1225 520L1205 530ZM1290 500L1310 495L1290 500ZM1310 520L1300 540L1310 520ZM1230 580L1215 570L1230 580ZM1260 480L1250 465L1260 480Z" fill="#60A5FA" fill-opacity="0.7"/>
<path d="M1210 490L1225 485M1240 500L1245 520M1275 480L1285 495M1220 550L1240 560M1290 530L1270 540M1250 560L1260 580M1310 570L1300 555M1205 530L1225 520M1290 500L1310 495M1310 520L1300 540M1230 580L1215 570M1260 480L1250 465" stroke="#60A5FA" stroke-opacity="0.7" stroke-linecap="round"/>
</g>
<g clip-path="url(#clip76_42_53)">
<path d="M10 490L25 485L10 490ZM40 500L45 520L40 500ZM75 480L85 495L75 480ZM20 550L40 560L20 550ZM90 530L70 540L90 530ZM50 560L60 580L50 560ZM110 570L100 555L110 570ZM5 530L25 520L5 530ZM90 500L110 495L90 500ZM110 520L100 540L110 520ZM30 580L15 570L30 580ZM60 480L50 465L60 480Z" fill="#60A5FA" fill-opacity="0.7"/>
<path d="M10 490L25 485M40 500L45 520M75 480L85 495M20 550L40 560M90 530L70 540M50 560L60 580M110 570L100 555M5 530L25 520M90 500L110 495M110 520L100 540M30 580L15 570M60 480L50 465" stroke="#60A5FA" stroke-opacity="0.7" stroke-linecap="round"/>
</g>
<g clip-path="url(#clip77_42_53)">
<path d="M1210 490L1225 485L1210 490ZM1240 500L1245 520L1240 500ZM1275 480L1285 495L1275 480ZM1220 550L1240 560L1220 550ZM1290 530L1270 540L1290 530ZM1250 560L1260 580L1250 560ZM1310 570L1300 555L1310 570ZM1205 530L1225 520L1205 530ZM1290 500L1310 495L1290 500ZM1310 520L1300 540L1310 520ZM1230 580L1215 570L1230 580ZM1260 480L1250 465L1260 480Z" fill="#60A5FA" fill-opacity="0.7"/>
<path d="M1210 490L1225 485M1240 500L1245 520M1275 480L1285 495M1220 550L1240 560M1290 530L1270 540M1250 560L1260 580M1310 570L1300 555M1205 530L1225 520M1290 500L1310 495M1310 520L1300 540M1230 580L1215 570M1260 480L1250 465" stroke="#60A5FA" stroke-opacity="0.7" stroke-linecap="round"/>
</g>
<g clip-path="url(#clip78_42_53)">
<path d="M10 610L25 605L10 610ZM40 620L45 640L40 620ZM75 600L85 615L75 600ZM20 670L40 680L20 670ZM90 650L70 660L90 650ZM50 680L60 700L50 680ZM110 690L100 675L110 690ZM5 650L25 640L5 650ZM90 620L110 615L90 620ZM110 640L100 660L110 640ZM30 700L15 690L30 700ZM60 600L50 585L60 600Z" fill="#60A5FA" fill-opacity="0.7"/>
<path d="M10 610L25 605M40 620L45 640M75 600L85 615M20 670L40 680M90 650L70 660M50 680L60 700M110 690L100 675M5 650L25 640M90 620L110 615M110 640L100 660M30 700L15 690M60 600L50 585" stroke="#60A5FA" stroke-opacity="0.7" stroke-linecap="round"/>
</g>
<g clip-path="url(#clip79_42_53)">
<path d="M130 610L145 605L130 610ZM160 620L165 640L160 620ZM195 600L205 615L195 600ZM140 670L160 680L140 670ZM210 650L190 660L210 650ZM170 680L180 700L170 680ZM230 690L220 675L230 690ZM125 650L145 640L125 650ZM210 620L230 615L210 620ZM230 640L220 660L230 640ZM150 700L135 690L150 700ZM180 600L170 585L180 600Z" fill="#60A5FA" fill-opacity="0.7"/>
<path d="M130 610L145 605M160 620L165 640M195 600L205 615M140 670L160 680M210 650L190 660M170 680L180 700M230 690L220 675M125 650L145 640M210 620L230 615M230 640L220 660M150 700L135 690M180 600L170 585" stroke="#60A5FA" stroke-opacity="0.7" stroke-linecap="round"/>
</g>
<g clip-path="url(#clip80_42_53)">
<path d="M250 610L265 605L250 610ZM280 620L285 640L280 620ZM315 600L325 615L315 600ZM260 670L280 680L260 670ZM330 650L310 660L330 650ZM290 680L300 700L290 680ZM350 690L340 675L350 690ZM245 650L265 640L245 650ZM330 620L350 615L330 620ZM350 640L340 660L350 640ZM270 700L255 690L270 700ZM300 600L290 585L300 600Z" fill="#60A5FA" fill-opacity="0.7"/>
<path d="M250 610L265 605M280 620L285 640M315 600L325 615M260 670L280 680M330 650L310 660M290 680L300 700M350 690L340 675M245 650L265 640M330 620L350 615M350 640L340 660M270 700L255 690M300 600L290 585" stroke="#60A5FA" stroke-opacity="0.7" stroke-linecap="round"/>
</g>
<g clip-path="url(#clip81_42_53)">
<path d="M370 610L385 605L370 610ZM400 620L405 640L400 620ZM435 600L445 615L435 600ZM380 670L400 680L380 670ZM450 650L430 660L450 650ZM410 680L420 700L410 680ZM470 690L460 675L470 690ZM365 650L385 640L365 650ZM450 620L470 615L450 620ZM470 640L460 660L470 640ZM390 700L375 690L390 700ZM420 600L410 585L420 600Z" fill="#60A5FA" fill-opacity="0.7"/>
<path d="M370 610L385 605M400 620L405 640M435 600L445 615M380 670L400 680M450 650L430 660M410 680L420 700M470 690L460 675M365 650L385 640M450 620L470 615M470 640L460 660M390 700L375 690M420 600L410 585" stroke="#60A5FA" stroke-opacity="0.7" stroke-linecap="round"/>
</g>
<g clip-path="url(#clip82_42_53)">
<path d="M490 610L505 605L490 610ZM520 620L525 640L520 620ZM555 600L565 615L555 600ZM500 670L520 680L500 670ZM570 650L550 660L570 650ZM530 680L540 700L530 680ZM590 690L580 675L590 690ZM485 650L505 640L485 650ZM570 620L590 615L570 620ZM590 640L580 660L590 640ZM510 700L495 690L510 700ZM540 600L530 585L540 600Z" fill="#60A5FA" fill-opacity="0.7"/>
<path d="M490 610L505 605M520 620L525 640M555 600L565 615M500 670L520 680M570 650L550 660M530 680L540 700M590 690L580 675M485 650L505 640M570 620L590 615M590 640L580 660M510 700L495 690M540 600L530 585" stroke="#60A5FA" stroke-opacity="0.7" stroke-linecap="round"/>
</g>
<g clip-path="url(#clip83_42_53)">
<path d="M610 610L625 605L610 610ZM640 620L645 640L640 620ZM675 600L685 615L675 600ZM620 670L640 680L620 670ZM690 650L670 660L690 650ZM650 680L660 700L650 680ZM710 690L700 675L710 690ZM605 650L625 640L605 650ZM690 620L710 615L690 620ZM710 640L700 660L710 640ZM630 700L615 690L630 700ZM660 600L650 585L660 600Z" fill="#60A5FA" fill-opacity="0.7"/>
<path d="M610 610L625 605M640 620L645 640M675 600L685 615M620 670L640 680M690 650L670 660M650 680L660 700M710 690L700 675M605 650L625 640M690 620L710 615M710 640L700 660M630 700L615 690M660 600L650 585" stroke="#60A5FA" stroke-opacity="0.7" stroke-linecap="round"/>
</g>
<g clip-path="url(#clip84_42_53)">
<path d="M730 610L745 605L730 610ZM760 620L765 640L760 620ZM795 600L805 615L795 600ZM740 670L760 680L740 670ZM810 650L790 660L810 650ZM770 680L780 700L770 680ZM830 690L820 675L830 690ZM725 650L745 640L725 650ZM810 620L830 615L810 620ZM830 640L820 660L830 640ZM750 700L735 690L750 700ZM780 600L770 585L780 600Z" fill="#60A5FA" fill-opacity="0.7"/>
<path d="M730 610L745 605M760 620L765 640M795 600L805 615M740 670L760 680M810 650L790 660M770 680L780 700M830 690L820 675M725 650L745 640M810 620L830 615M830 640L820 660M750 700L735 690M780 600L770 585" stroke="#60A5FA" stroke-opacity="0.7" stroke-linecap="round"/>
</g>
<g clip-path="url(#clip85_42_53)">
<path d="M850 610L865 605L850 610ZM880 620L885 640L880 620ZM915 600L925 615L915 600ZM860 670L880 680L860 670ZM930 650L910 660L930 650ZM890 680L900 700L890 680ZM950 690L940 675L950 690ZM845 650L865 640L845 650ZM930 620L950 615L930 620ZM950 640L940 660L950 640ZM870 700L855 690L870 700ZM900 600L890 585L900 600Z" fill="#60A5FA" fill-opacity="0.7"/>
<path d="M850 610L865 605M880 620L885 640M915 600L925 615M860 670L880 680M930 650L910 660M890 680L900 700M950 690L940 675M845 650L865 640M930 620L950 615M950 640L940 660M870 700L855 690M900 600L890 585" stroke="#60A5FA" stroke-opacity="0.7" stroke-linecap="round"/>
</g>
<g clip-path="url(#clip86_42_53)">
<path d="M970 610L985 605L970 610ZM1000 620L1005 640L1000 620ZM1035 600L1045 615L1035 600ZM980 670L1000 680L980 670ZM1050 650L1030 660L1050 650ZM1010 680L1020 700L1010 680ZM1070 690L1060 675L1070 690ZM965 650L985 640L965 650ZM1050 620L1070 615L1050 620ZM1070 640L1060 660L1070 640ZM990 700L975 690L990 700ZM1020 600L1010 585L1020 600Z" fill="#60A5FA" fill-opacity="0.7"/>
<path d="M970 610L985 605M1000 620L1005 640M1035 600L1045 615M980 670L1000 680M1050 650L1030 660M1010 680L1020 700M1070 690L1060 675M965 650L985 640M1050 620L1070 615M1070 640L1060 660M990 700L975 690M1020 600L1010 585" stroke="#60A5FA" stroke-opacity="0.7" stroke-linecap="round"/>
</g>
<g clip-path="url(#clip87_42_53)">
<path d="M1090 610L1105 605L1090 610ZM1120 620L1125 640L1120 620ZM1155 600L1165 615L1155 600ZM1100 670L1120 680L1100 670ZM1170 650L1150 660L1170 650ZM1130 680L1140 700L1130 680ZM1190 690L1180 675L1190 690ZM1085 650L1105 640L1085 650ZM1170 620L1190 615L1170 620ZM1190 640L1180 660L1190 640ZM1110 700L1095 690L1110 700ZM1140 600L1130 585L1140 600Z" fill="#60A5FA" fill-opacity="0.7"/>
<path d="M1090 610L1105 605M1120 620L1125 640M1155 600L1165 615M1100 670L1120 680M1170 650L1150 660M1130 680L1140 700M1190 690L1180 675M1085 650L1105 640M1170 620L1190 615M1190 640L1180 660M1110 700L1095 690M1140 600L1130 585" stroke="#60A5FA" stroke-opacity="0.7" stroke-linecap="round"/>
</g>
<g clip-path="url(#clip88_42_53)">
<path d="M1210 610L1225 605L1210 610ZM1240 620L1245 640L1240 620ZM1275 600L1285 615L1275 600ZM1220 670L1240 680L1220 670ZM1290 650L1270 660L1290 650ZM1250 680L1260 700L1250 680ZM1310 690L1300 675L1310 690ZM1205 650L1225 640L1205 650ZM1290 620L1310 615L1290 620ZM1310 640L1300 660L1310 640ZM1230 700L1215 690L1230 700ZM1260 600L1250 585L1260 600Z" fill="#60A5FA" fill-opacity="0.7"/>
<path d="M1210 610L1225 605M1240 620L1245 640M1275 600L1285 615M1220 670L1240 680M1290 650L1270 660M1250 680L1260 700M1310 690L1300 675M1205 650L1225 640M1290 620L1310 615M1310 640L1300 660M1230 700L1215 690M1260 600L1250 585" stroke="#60A5FA" stroke-opacity="0.7" stroke-linecap="round"/>
</g>
<g clip-path="url(#clip89_42_53)">
<path d="M10 610L25 605L10 610ZM40 620L45 640L40 620ZM75 600L85 615L75 600ZM20 670L40 680L20 670ZM90 650L70 660L90 650ZM50 680L60 700L50 680ZM110 690L100 675L110 690ZM5 650L25 640L5 650ZM90 620L110 615L90 620ZM110 640L100 660L110 640ZM30 700L15 690L30 700ZM60 600L50 585L60 600Z" fill="#60A5FA" fill-opacity="0.7"/>
<path d="M10 610L25 605M40 620L45 640M75 600L85 615M20 670L40 680M90 650L70 660M50 680L60 700M110 690L100 675M5 650L25 640M90 620L110 615M110 640L100 660M30 700L15 690M60 600L50 585" stroke="#60A5FA" stroke-opacity="0.7" stroke-linecap="round"/>
</g>
<g clip-path="url(#clip90_42_53)">
<path d="M1210 610L1225 605L1210 610ZM1240 620L1245 640L1240 620ZM1275 600L1285 615L1275 600ZM1220 670L1240 680L1220 670ZM1290 650L1270 660L1290 650ZM1250 680L1260 700L1250 680ZM1310 690L1300 675L1310 690ZM1205 650L1225 640L1205 650ZM1290 620L1310 615L1290 620ZM1310 640L1300 660L1310 640ZM1230 700L1215 690L1230 700ZM1260 600L1250 585L1260 600Z" fill="#60A5FA" fill-opacity="0.7"/>
<path d="M1210 610L1225 605M1240 620L1245 640M1275 600L1285 615M1220 670L1240 680M1290 650L1270 660M1250 680L1260 700M1310 690L1300 675M1205 650L1225 640M1290 620L1310 615M1310 640L1300 660M1230 700L1215 690M1260 600L1250 585" stroke="#60A5FA" stroke-opacity="0.7" stroke-linecap="round"/>
</g>
<g clip-path="url(#clip91_42_53)">
<path d="M10 730L25 725L10 730ZM40 740L45 760L40 740ZM75 720L85 735L75 720ZM20 790L40 800L20 790ZM90 770L70 780L90 770ZM50 800L60 820L50 800ZM110 810L100 795L110 810ZM5 770L25 760L5 770ZM90 740L110 735L90 740ZM110 760L100 780L110 760ZM30 820L15 810L30 820ZM60 720L50 705L60 720Z" fill="#60A5FA" fill-opacity="0.7"/>
<path d="M10 730L25 725M40 740L45 760M75 720L85 735M20 790L40 800M90 770L70 780M50 800L60 820M110 810L100 795M5 770L25 760M90 740L110 735M110 760L100 780M30 820L15 810M60 720L50 705" stroke="#60A5FA" stroke-opacity="0.7" stroke-linecap="round"/>
</g>
<g clip-path="url(#clip92_42_53)">
<path d="M130 730L145 725L130 730ZM160 740L165 760L160 740ZM195 720L205 735L195 720ZM140 790L160 800L140 790ZM210 770L190 780L210 770ZM170 800L180 820L170 800ZM230 810L220 795L230 810ZM125 770L145 760L125 770ZM210 740L230 735L210 740ZM230 760L220 780L230 760ZM150 820L135 810L150 820ZM180 720L170 705L180 720Z" fill="#60A5FA" fill-opacity="0.7"/>
<path d="M130 730L145 725M160 740L165 760M195 720L205 735M140 790L160 800M210 770L190 780M170 800L180 820M230 810L220 795M125 770L145 760M210 740L230 735M230 760L220 780M150 820L135 810M180 720L170 705" stroke="#60A5FA" stroke-opacity="0.7" stroke-linecap="round"/>
</g>
<g clip-path="url(#clip93_42_53)">
<path d="M250 730L265 725L250 730ZM280 740L285 760L280 740ZM315 720L325 735L315 720ZM260 790L280 800L260 790ZM330 770L310 780L330 770ZM290 800L300 820L290 800ZM350 810L340 795L350 810ZM245 770L265 760L245 770ZM330 740L350 735L330 740ZM350 760L340 780L350 760ZM270 820L255 810L270 820ZM300 720L290 705L300 720Z" fill="#60A5FA" fill-opacity="0.7"/>
<path d="M250 730L265 725M280 740L285 760M315 720L325 735M260 790L280 800M330 770L310 780M290 800L300 820M350 810L340 795M245 770L265 760M330 740L350 735M350 760L340 780M270 820L255 810M300 720L290 705" stroke="#60A5FA" stroke-opacity="0.7" stroke-linecap="round"/>
</g>
<g clip-path="url(#clip94_42_53)">
<path d="M370 730L385 725L370 730ZM400 740L405 760L400 740ZM435 720L445 735L435 720ZM380 790L400 800L380 790ZM450 770L430 780L450 770ZM410 800L420 820L410 800ZM470 810L460 795L470 810ZM365 770L385 760L365 770ZM450 740L470 735L450 740ZM470 760L460 780L470 760ZM390 820L375 810L390 820ZM420 720L410 705L420 720Z" fill="#60A5FA" fill-opacity="0.7"/>
<path d="M370 730L385 725M400 740L405 760M435 720L445 735M380 790L400 800M450 770L430 780M410 800L420 820M470 810L460 795M365 770L385 760M450 740L470 735M470 760L460 780M390 820L375 810M420 720L410 705" stroke="#60A5FA" stroke-opacity="0.7" stroke-linecap="round"/>
</g>
<g clip-path="url(#clip95_42_53)">
<path d="M490 730L505 725L490 730ZM520 740L525 760L520 740ZM555 720L565 735L555 720ZM500 790L520 800L500 790ZM570 770L550 780L570 770ZM530 800L540 820L530 800ZM590 810L580 795L590 810ZM485 770L505 760L485 770ZM570 740L590 735L570 740ZM590 760L580 780L590 760ZM510 820L495 810L510 820ZM540 720L530 705L540 720Z" fill="#60A5FA" fill-opacity="0.7"/>
<path d="M490 730L505 725M520 740L525 760M555 720L565 735M500 790L520 800M570 770L550 780M530 800L540 820M590 810L580 795M485 770L505 760M570 740L590 735M590 760L580 780M510 820L495 810M540 720L530 705" stroke="#60A5FA" stroke-opacity="0.7" stroke-linecap="round"/>
</g>
<g clip-path="url(#clip96_42_53)">
<path d="M610 730L625 725L610 730ZM640 740L645 760L640 740ZM675 720L685 735L675 720ZM620 790L640 800L620 790ZM690 770L670 780L690 770ZM650 800L660 820L650 800ZM710 810L700 795L710 810ZM605 770L625 760L605 770ZM690 740L710 735L690 740ZM710 760L700 780L710 760ZM630 820L615 810L630 820ZM660 720L650 705L660 720Z" fill="#60A5FA" fill-opacity="0.7"/>
<path d="M610 730L625 725M640 740L645 760M675 720L685 735M620 790L640 800M690 770L670 780M650 800L660 820M710 810L700 795M605 770L625 760M690 740L710 735M710 760L700 780M630 820L615 810M660 720L650 705" stroke="#60A5FA" stroke-opacity="0.7" stroke-linecap="round"/>
</g>
<g clip-path="url(#clip97_42_53)">
<path d="M730 730L745 725L730 730ZM760 740L765 760L760 740ZM795 720L805 735L795 720ZM740 790L760 800L740 790ZM810 770L790 780L810 770ZM770 800L780 820L770 800ZM830 810L820 795L830 810ZM725 770L745 760L725 770ZM810 740L830 735L810 740ZM830 760L820 780L830 760ZM750 820L735 810L750 820ZM780 720L770 705L780 720Z" fill="#60A5FA" fill-opacity="0.7"/>
<path d="M730 730L745 725M760 740L765 760M795 720L805 735M740 790L760 800M810 770L790 780M770 800L780 820M830 810L820 795M725 770L745 760M810 740L830 735M830 760L820 780M750 820L735 810M780 720L770 705" stroke="#60A5FA" stroke-opacity="0.7" stroke-linecap="round"/>
</g>
<g clip-path="url(#clip98_42_53)">
<path d="M850 730L865 725L850 730ZM880 740L885 760L880 740ZM915 720L925 735L915 720ZM860 790L880 800L860 790ZM930 770L910 780L930 770ZM890 800L900 820L890 800ZM950 810L940 795L950 810ZM845 770L865 760L845 770ZM930 740L950 735L930 740ZM950 760L940 780L950 760ZM870 820L855 810L870 820ZM900 720L890 705L900 720Z" fill="#60A5FA" fill-opacity="0.7"/>
<path d="M850 730L865 725M880 740L885 760M915 720L925 735M860 790L880 800M930 770L910 780M890 800L900 820M950 810L940 795M845 770L865 760M930 740L950 735M950 760L940 780M870 820L855 810M900 720L890 705" stroke="#60A5FA" stroke-opacity="0.7" stroke-linecap="round"/>
</g>
<g clip-path="url(#clip99_42_53)">
<path d="M970 730L985 725L970 730ZM1000 740L1005 760L1000 740ZM1035 720L1045 735L1035 720ZM980 790L1000 800L980 790ZM1050 770L1030 780L1050 770ZM1010 800L1020 820L1010 800ZM1070 810L1060 795L1070 810ZM965 770L985 760L965 770ZM1050 740L1070 735L1050 740ZM1070 760L1060 780L1070 760ZM990 820L975 810L990 820ZM1020 720L1010 705L1020 720Z" fill="#60A5FA" fill-opacity="0.7"/>
<path d="M970 730L985 725M1000 740L1005 760M1035 720L1045 735M980 790L1000 800M1050 770L1030 780M1010 800L1020 820M1070 810L1060 795M965 770L985 760M1050 740L1070 735M1070 760L1060 780M990 820L975 810M1020 720L1010 705" stroke="#60A5FA" stroke-opacity="0.7" stroke-linecap="round"/>
</g>
<g clip-path="url(#clip100_42_53)">
<path d="M1090 730L1105 725L1090 730ZM1120 740L1125 760L1120 740ZM1155 720L1165 735L1155 720ZM1100 790L1120 800L1100 790ZM1170 770L1150 780L1170 770ZM1130 800L1140 820L1130 800ZM1190 810L1180 795L1190 810ZM1085 770L1105 760L1085 770ZM1170 740L1190 735L1170 740ZM1190 760L1180 780L1190 760ZM1110 820L1095 810L1110 820ZM1140 720L1130 705L1140 720Z" fill="#60A5FA" fill-opacity="0.7"/>
<path d="M1090 730L1105 725M1120 740L1125 760M1155 720L1165 735M1100 790L1120 800M1170 770L1150 780M1130 800L1140 820M1190 810L1180 795M1085 770L1105 760M1170 740L1190 735M1190 760L1180 780M1110 820L1095 810M1140 720L1130 705" stroke="#60A5FA" stroke-opacity="0.7" stroke-linecap="round"/>
</g>
<g clip-path="url(#clip101_42_53)">
<path d="M1210 730L1225 725L1210 730ZM1240 740L1245 760L1240 740ZM1275 720L1285 735L1275 720ZM1220 790L1240 800L1220 790ZM1290 770L1270 780L1290 770ZM1250 800L1260 820L1250 800ZM1310 810L1300 795L1310 810ZM1205 770L1225 760L1205 770ZM1290 740L1310 735L1290 740ZM1310 760L1300 780L1310 760ZM1230 820L1215 810L1230 820ZM1260 720L1250 705L1260 720Z" fill="#60A5FA" fill-opacity="0.7"/>
<path d="M1210 730L1225 725M1240 740L1245 760M1275 720L1285 735M1220 790L1240 800M1290 770L1270 780M1250 800L1260 820M1310 810L1300 795M1205 770L1225 760M1290 740L1310 735M1310 760L1300 780M1230 820L1215 810M1260 720L1250 705" stroke="#60A5FA" stroke-opacity="0.7" stroke-linecap="round"/>
</g>
<g clip-path="url(#clip102_42_53)">
<path d="M10 730L25 725L10 730ZM40 740L45 760L40 740ZM75 720L85 735L75 720ZM20 790L40 800L20 790ZM90 770L70 780L90 770ZM50 800L60 820L50 800ZM110 810L100 795L110 810ZM5 770L25 760L5 770ZM90 740L110 735L90 740ZM110 760L100 780L110 760ZM30 820L15 810L30 820ZM60 720L50 705L60 720Z" fill="#60A5FA" fill-opacity="0.7"/>
<path d="M10 730L25 725M40 740L45 760M75 720L85 735M20 790L40 800M90 770L70 780M50 800L60 820M110 810L100 795M5 770L25 760M90 740L110 735M110 760L100 780M30 820L15 810M60 720L50 705" stroke="#60A5FA" stroke-opacity="0.7" stroke-linecap="round"/>
</g>
<g clip-path="url(#clip103_42_53)">
<path d="M1210 730L1225 725L1210 730ZM1240 740L1245 760L1240 740ZM1275 720L1285 735L1275 720ZM1220 790L1240 800L1220 790ZM1290 770L1270 780L1290 770ZM1250 800L1260 820L1250 800ZM1310 810L1300 795L1310 810ZM1205 770L1225 760L1205 770ZM1290 740L1310 735L1290 740ZM1310 760L1300 780L1310 760ZM1230 820L1215 810L1230 820ZM1260 720L1250 705L1260 720Z" fill="#60A5FA" fill-opacity="0.7"/>
<path d="M1210 730L1225 725M1240 740L1245 760M1275 720L1285 735M1220 790L1240 800M1290 770L1270 780M1250 800L1260 820M1310 810L1300 795M1205 770L1225 760M1290 740L1310 735M1310 760L1300 780M1230 820L1215 810M1260 720L1250 705" stroke="#60A5FA" stroke-opacity="0.7" stroke-linecap="round"/>
</g>
<g clip-path="url(#clip104_42_53)">
<path d="M10 850L25 845L10 850ZM40 860L45 880L40 860ZM75 840L85 855L75 840ZM20 910L40 920L20 910ZM90 890L70 900L90 890ZM50 920L60 940L50 920ZM110 930L100 915L110 930ZM5 890L25 880L5 890ZM90 860L110 855L90 860ZM110 880L100 900L110 880ZM30 940L15 930L30 940ZM60 840L50 825L60 840Z" fill="#60A5FA" fill-opacity="0.7"/>
<path d="M10 850L25 845M40 860L45 880M75 840L85 855M20 910L40 920M90 890L70 900M50 920L60 940M110 930L100 915M5 890L25 880M90 860L110 855M110 880L100 900M30 940L15 930M60 840L50 825" stroke="#60A5FA" stroke-opacity="0.7" stroke-linecap="round"/>
</g>
<g clip-path="url(#clip105_42_53)">
<path d="M130 850L145 845L130 850ZM160 860L165 880L160 860ZM195 840L205 855L195 840ZM140 910L160 920L140 910ZM210 890L190 900L210 890ZM170 920L180 940L170 920ZM230 930L220 915L230 930ZM125 890L145 880L125 890ZM210 860L230 855L210 860ZM230 880L220 900L230 880ZM150 940L135 930L150 940ZM180 840L170 825L180 840Z" fill="#60A5FA" fill-opacity="0.7"/>
<path d="M130 850L145 845M160 860L165 880M195 840L205 855M140 910L160 920M210 890L190 900M170 920L180 940M230 930L220 915M125 890L145 880M210 860L230 855M230 880L220 900M150 940L135 930M180 840L170 825" stroke="#60A5FA" stroke-opacity="0.7" stroke-linecap="round"/>
</g>
<g clip-path="url(#clip106_42_53)">
<path d="M250 850L265 845L250 850ZM280 860L285 880L280 860ZM315 840L325 855L315 840ZM260 910L280 920L260 910ZM330 890L310 900L330 890ZM290 920L300 940L290 920ZM350 930L340 915L350 930ZM245 890L265 880L245 890ZM330 860L350 855L330 860ZM350 880L340 900L350 880ZM270 940L255 930L270 940ZM300 840L290 825L300 840Z" fill="#60A5FA" fill-opacity="0.7"/>
<path d="M250 850L265 845M280 860L285 880M315 840L325 855M260 910L280 920M330 890L310 900M290 920L300 940M350 930L340 915M245 890L265 880M330 860L350 855M350 880L340 900M270 940L255 930M300 840L290 825" stroke="#60A5FA" stroke-opacity="0.7" stroke-linecap="round"/>
</g>
<g clip-path="url(#clip107_42_53)">
<path d="M370 850L385 845L370 850ZM400 860L405 880L400 860ZM435 840L445 855L435 840ZM380 910L400 920L380 910ZM450 890L430 900L450 890ZM410 920L420 940L410 920ZM470 930L460 915L470 930ZM365 890L385 880L365 890ZM450 860L470 855L450 860ZM470 880L460 900L470 880ZM390 940L375 930L390 940ZM420 840L410 825L420 840Z" fill="#60A5FA" fill-opacity="0.7"/>
<path d="M370 850L385 845M400 860L405 880M435 840L445 855M380 910L400 920M450 890L430 900M410 920L420 940M470 930L460 915M365 890L385 880M450 860L470 855M470 880L460 900M390 940L375 930M420 840L410 825" stroke="#60A5FA" stroke-opacity="0.7" stroke-linecap="round"/>
</g>
<g clip-path="url(#clip108_42_53)">
<path d="M490 850L505 845L490 850ZM520 860L525 880L520 860ZM555 840L565 855L555 840ZM500 910L520 920L500 910ZM570 890L550 900L570 890ZM530 920L540 940L530 920ZM590 930L580 915L590 930ZM485 890L505 880L485 890ZM570 860L590 855L570 860ZM590 880L580 900L590 880ZM510 940L495 930L510 940ZM540 840L530 825L540 840Z" fill="#60A5FA" fill-opacity="0.7"/>
<path d="M490 850L505 845M520 860L525 880M555 840L565 855M500 910L520 920M570 890L550 900M530 920L540 940M590 930L580 915M485 890L505 880M570 860L590 855M590 880L580 900M510 940L495 930M540 840L530 825" stroke="#60A5FA" stroke-opacity="0.7" stroke-linecap="round"/>
</g>
<g clip-path="url(#clip109_42_53)">
<path d="M610 850L625 845L610 850ZM640 860L645 880L640 860ZM675 840L685 855L675 840ZM620 910L640 920L620 910ZM690 890L670 900L690 890ZM650 920L660 940L650 920ZM710 930L700 915L710 930ZM605 890L625 880L605 890ZM690 860L710 855L690 860ZM710 880L700 900L710 880ZM630 940L615 930L630 940ZM660 840L650 825L660 840Z" fill="#60A5FA" fill-opacity="0.7"/>
<path d="M610 850L625 845M640 860L645 880M675 840L685 855M620 910L640 920M690 890L670 900M650 920L660 940M710 930L700 915M605 890L625 880M690 860L710 855M710 880L700 900M630 940L615 930M660 840L650 825" stroke="#60A5FA" stroke-opacity="0.7" stroke-linecap="round"/>
</g>
<g clip-path="url(#clip110_42_53)">
<path d="M730 850L745 845L730 850ZM760 860L765 880L760 860ZM795 840L805 855L795 840ZM740 910L760 920L740 910ZM810 890L790 900L810 890ZM770 920L780 940L770 920ZM830 930L820 915L830 930ZM725 890L745 880L725 890ZM810 860L830 855L810 860ZM830 880L820 900L830 880ZM750 940L735 930L750 940ZM780 840L770 825L780 840Z" fill="#60A5FA" fill-opacity="0.7"/>
<path d="M730 850L745 845M760 860L765 880M795 840L805 855M740 910L760 920M810 890L790 900M770 920L780 940M830 930L820 915M725 890L745 880M810 860L830 855M830 880L820 900M750 940L735 930M780 840L770 825" stroke="#60A5FA" stroke-opacity="0.7" stroke-linecap="round"/>
</g>
<g clip-path="url(#clip111_42_53)">
<path d="M850 850L865 845L850 850ZM880 860L885 880L880 860ZM915 840L925 855L915 840ZM860 910L880 920L860 910ZM930 890L910 900L930 890ZM890 920L900 940L890 920ZM950 930L940 915L950 930ZM845 890L865 880L845 890ZM930 860L950 855L930 860ZM950 880L940 900L950 880ZM870 940L855 930L870 940ZM900 840L890 825L900 840Z" fill="#60A5FA" fill-opacity="0.7"/>
<path d="M850 850L865 845M880 860L885 880M915 840L925 855M860 910L880 920M930 890L910 900M890 920L900 940M950 930L940 915M845 890L865 880M930 860L950 855M950 880L940 900M870 940L855 930M900 840L890 825" stroke="#60A5FA" stroke-opacity="0.7" stroke-linecap="round"/>
</g>
<g clip-path="url(#clip112_42_53)">
<path d="M970 850L985 845L970 850ZM1000 860L1005 880L1000 860ZM1035 840L1045 855L1035 840ZM980 910L1000 920L980 910ZM1050 890L1030 900L1050 890ZM1010 920L1020 940L1010 920ZM1070 930L1060 915L1070 930ZM965 890L985 880L965 890ZM1050 860L1070 855L1050 860ZM1070 880L1060 900L1070 880ZM990 940L975 930L990 940ZM1020 840L1010 825L1020 840Z" fill="#60A5FA" fill-opacity="0.7"/>
<path d="M970 850L985 845M1000 860L1005 880M1035 840L1045 855M980 910L1000 920M1050 890L1030 900M1010 920L1020 940M1070 930L1060 915M965 890L985 880M1050 860L1070 855M1070 880L1060 900M990 940L975 930M1020 840L1010 825" stroke="#60A5FA" stroke-opacity="0.7" stroke-linecap="round"/>
</g>
<g clip-path="url(#clip113_42_53)">
<path d="M1090 850L1105 845L1090 850ZM1120 860L1125 880L1120 860ZM1155 840L1165 855L1155 840ZM1100 910L1120 920L1100 910ZM1170 890L1150 900L1170 890ZM1130 920L1140 940L1130 920ZM1190 930L1180 915L1190 930ZM1085 890L1105 880L1085 890ZM1170 860L1190 855L1170 860ZM1190 880L1180 900L1190 880ZM1110 940L1095 930L1110 940ZM1140 840L1130 825L1140 840Z" fill="#60A5FA" fill-opacity="0.7"/>
<path d="M1090 850L1105 845M1120 860L1125 880M1155 840L1165 855M1100 910L1120 920M1170 890L1150 900M1130 920L1140 940M1190 930L1180 915M1085 890L1105 880M1170 860L1190 855M1190 880L1180 900M1110 940L1095 930M1140 840L1130 825" stroke="#60A5FA" stroke-opacity="0.7" stroke-linecap="round"/>
</g>
<g clip-path="url(#clip114_42_53)">
<path d="M1210 850L1225 845L1210 850ZM1240 860L1245 880L1240 860ZM1275 840L1285 855L1275 840ZM1220 910L1240 920L1220 910ZM1290 890L1270 900L1290 890ZM1250 920L1260 940L1250 920ZM1310 930L1300 915L1310 930ZM1205 890L1225 880L1205 890ZM1290 860L1310 855L1290 860ZM1310 880L1300 900L1310 880ZM1230 940L1215 930L1230 940ZM1260 840L1250 825L1260 840Z" fill="#60A5FA" fill-opacity="0.7"/>
<path d="M1210 850L1225 845M1240 860L1245 880M1275 840L1285 855M1220 910L1240 920M1290 890L1270 900M1250 920L1260 940M1310 930L1300 915M1205 890L1225 880M1290 860L1310 855M1310 880L1300 900M1230 940L1215 930M1260 840L1250 825" stroke="#60A5FA" stroke-opacity="0.7" stroke-linecap="round"/>
</g>
<g clip-path="url(#clip115_42_53)">
<path d="M10 850L25 845L10 850ZM40 860L45 880L40 860ZM75 840L85 855L75 840ZM20 910L40 920L20 910ZM90 890L70 900L90 890ZM50 920L60 940L50 920ZM110 930L100 915L110 930ZM5 890L25 880L5 890ZM90 860L110 855L90 860ZM110 880L100 900L110 880ZM30 940L15 930L30 940ZM60 840L50 825L60 840Z" fill="#60A5FA" fill-opacity="0.7"/>
<path d="M10 850L25 845M40 860L45 880M75 840L85 855M20 910L40 920M90 890L70 900M50 920L60 940M110 930L100 915M5 890L25 880M90 860L110 855M110 880L100 900M30 940L15 930M60 840L50 825" stroke="#60A5FA" stroke-opacity="0.7" stroke-linecap="round"/>
</g>
<g clip-path="url(#clip116_42_53)">
<path d="M1210 850L1225 845L1210 850ZM1240 860L1245 880L1240 860ZM1275 840L1285 855L1275 840ZM1220 910L1240 920L1220 910ZM1290 890L1270 900L1290 890ZM1250 920L1260 940L1250 920ZM1310 930L1300 915L1310 930ZM1205 890L1225 880L1205 890ZM1290 860L1310 855L1290 860ZM1310 880L1300 900L1310 880ZM1230 940L1215 930L1230 940ZM1260 840L1250 825L1260 840Z" fill="#60A5FA" fill-opacity="0.7"/>
<path d="M1210 850L1225 845M1240 860L1245 880M1275 840L1285 855M1220 910L1240 920M1290 890L1270 900M1250 920L1260 940M1310 930L1300 915M1205 890L1225 880M1290 860L1310 855M1310 880L1300 900M1230 940L1215 930M1260 840L1250 825" stroke="#60A5FA" stroke-opacity="0.7" stroke-linecap="round"/>
</g>
<defs>
<clipPath id="clip0_42_53">
<rect width="120" height="120" fill="white"/>
</clipPath>
<clipPath id="clip1_42_53">
<rect width="120" height="120" fill="white" transform="translate(120)"/>
</clipPath>
<clipPath id="clip2_42_53">
<rect width="120" height="120" fill="white" transform="translate(240)"/>
</clipPath>
<clipPath id="clip3_42_53">
<rect width="120" height="120" fill="white" transform="translate(360)"/>
</clipPath>
<clipPath id="clip4_42_53">
<rect width="120" height="120" fill="white" transform="translate(480)"/>
</clipPath>
<clipPath id="clip5_42_53">
<rect width="120" height="120" fill="white" transform="translate(600)"/>
</clipPath>
<clipPath id="clip6_42_53">
<rect width="120" height="120" fill="white" transform="translate(720)"/>
</clipPath>
<clipPath id="clip7_42_53">
<rect width="120" height="120" fill="white" transform="translate(840)"/>
</clipPath>
<clipPath id="clip8_42_53">
<rect width="120" height="120" fill="white" transform="translate(960)"/>
</clipPath>
<clipPath id="clip9_42_53">
<rect width="120" height="120" fill="white" transform="translate(1080)"/>
</clipPath>
<clipPath id="clip10_42_53">
<rect width="120" height="120" fill="white" transform="translate(1200)"/>
</clipPath>
<clipPath id="clip11_42_53">
<rect width="120" height="120" fill="white"/>
</clipPath>
<clipPath id="clip12_42_53">
<rect width="120" height="120" fill="white" transform="translate(1200)"/>
</clipPath>
<clipPath id="clip13_42_53">
<rect width="120" height="120" fill="white" transform="translate(0 120)"/>
</clipPath>
<clipPath id="clip14_42_53">
<rect width="120" height="120" fill="white" transform="translate(120 120)"/>
</clipPath>
<clipPath id="clip15_42_53">
<rect width="120" height="120" fill="white" transform="translate(240 120)"/>
</clipPath>
<clipPath id="clip16_42_53">
<rect width="120" height="120" fill="white" transform="translate(360 120)"/>
</clipPath>
<clipPath id="clip17_42_53">
<rect width="120" height="120" fill="white" transform="translate(480 120)"/>
</clipPath>
<clipPath id="clip18_42_53">
<rect width="120" height="120" fill="white" transform="translate(600 120)"/>
</clipPath>
<clipPath id="clip19_42_53">
<rect width="120" height="120" fill="white" transform="translate(720 120)"/>
</clipPath>
<clipPath id="clip20_42_53">
<rect width="120" height="120" fill="white" transform="translate(840 120)"/>
</clipPath>
<clipPath id="clip21_42_53">
<rect width="120" height="120" fill="white" transform="translate(960 120)"/>
</clipPath>
<clipPath id="clip22_42_53">
<rect width="120" height="120" fill="white" transform="translate(1080 120)"/>
</clipPath>
<clipPath id="clip23_42_53">
<rect width="120" height="120" fill="white" transform="translate(1200 120)"/>
</clipPath>
<clipPath id="clip24_42_53">
<rect width="120" height="120" fill="white" transform="translate(0 120)"/>
</clipPath>
<clipPath id="clip25_42_53">
<rect width="120" height="120" fill="white" transform="translate(1200 120)"/>
</clipPath>
<clipPath id="clip26_42_53">
<rect width="120" height="120" fill="white" transform="translate(0 230)"/>
</clipPath>
<clipPath id="clip27_42_53">
<rect width="120" height="120" fill="white" transform="translate(120 230)"/>
</clipPath>
<clipPath id="clip28_42_53">
<rect width="120" height="120" fill="white" transform="translate(240 230)"/>
</clipPath>
<clipPath id="clip29_42_53">
<rect width="120" height="120" fill="white" transform="translate(360 230)"/>
</clipPath>
<clipPath id="clip30_42_53">
<rect width="120" height="120" fill="white" transform="translate(480 230)"/>
</clipPath>
<clipPath id="clip31_42_53">
<rect width="120" height="120" fill="white" transform="translate(600 230)"/>
</clipPath>
<clipPath id="clip32_42_53">
<rect width="120" height="120" fill="white" transform="translate(720 230)"/>
</clipPath>
<clipPath id="clip33_42_53">
<rect width="120" height="120" fill="white" transform="translate(840 230)"/>
</clipPath>
<clipPath id="clip34_42_53">
<rect width="120" height="120" fill="white" transform="translate(960 230)"/>
</clipPath>
<clipPath id="clip35_42_53">
<rect width="120" height="120" fill="white" transform="translate(1080 230)"/>
</clipPath>
<clipPath id="clip36_42_53">
<rect width="120" height="120" fill="white" transform="translate(1200 230)"/>
</clipPath>
<clipPath id="clip37_42_53">
<rect width="120" height="120" fill="white" transform="translate(0 230)"/>
</clipPath>
<clipPath id="clip38_42_53">
<rect width="120" height="120" fill="white" transform="translate(1200 230)"/>
</clipPath>
<clipPath id="clip39_42_53">
<rect width="120" height="120" fill="white" transform="translate(0 230)"/>
</clipPath>
<clipPath id="clip40_42_53">
<rect width="120" height="120" fill="white" transform="translate(120 230)"/>
</clipPath>
<clipPath id="clip41_42_53">
<rect width="120" height="120" fill="white" transform="translate(240 230)"/>
</clipPath>
<clipPath id="clip42_42_53">
<rect width="120" height="120" fill="white" transform="translate(360 230)"/>
</clipPath>
<clipPath id="clip43_42_53">
<rect width="120" height="120" fill="white" transform="translate(480 230)"/>
</clipPath>
<clipPath id="clip44_42_53">
<rect width="120" height="120" fill="white" transform="translate(600 230)"/>
</clipPath>
<clipPath id="clip45_42_53">
<rect width="120" height="120" fill="white" transform="translate(720 230)"/>
</clipPath>
<clipPath id="clip46_42_53">
<rect width="120" height="120" fill="white" transform="translate(840 230)"/>
</clipPath>
<clipPath id="clip47_42_53">
<rect width="120" height="120" fill="white" transform="translate(960 230)"/>
</clipPath>
<clipPath id="clip48_42_53">
<rect width="120" height="120" fill="white" transform="translate(1080 230)"/>
</clipPath>
<clipPath id="clip49_42_53">
<rect width="120" height="120" fill="white" transform="translate(1200 230)"/>
</clipPath>
<clipPath id="clip50_42_53">
<rect width="120" height="120" fill="white" transform="translate(0 230)"/>
</clipPath>
<clipPath id="clip51_42_53">
<rect width="120" height="120" fill="white" transform="translate(1200 230)"/>
</clipPath>
<clipPath id="clip52_42_53">
<rect width="120" height="120" fill="white" transform="translate(0 350)"/>
</clipPath>
<clipPath id="clip53_42_53">
<rect width="120" height="120" fill="white" transform="translate(120 350)"/>
</clipPath>
<clipPath id="clip54_42_53">
<rect width="120" height="120" fill="white" transform="translate(240 350)"/>
</clipPath>
<clipPath id="clip55_42_53">
<rect width="120" height="120" fill="white" transform="translate(360 350)"/>
</clipPath>
<clipPath id="clip56_42_53">
<rect width="120" height="120" fill="white" transform="translate(480 350)"/>
</clipPath>
<clipPath id="clip57_42_53">
<rect width="120" height="120" fill="white" transform="translate(600 350)"/>
</clipPath>
<clipPath id="clip58_42_53">
<rect width="120" height="120" fill="white" transform="translate(720 350)"/>
</clipPath>
<clipPath id="clip59_42_53">
<rect width="120" height="120" fill="white" transform="translate(840 350)"/>
</clipPath>
<clipPath id="clip60_42_53">
<rect width="120" height="120" fill="white" transform="translate(960 350)"/>
</clipPath>
<clipPath id="clip61_42_53">
<rect width="120" height="120" fill="white" transform="translate(1080 350)"/>
</clipPath>
<clipPath id="clip62_42_53">
<rect width="120" height="120" fill="white" transform="translate(1200 350)"/>
</clipPath>
<clipPath id="clip63_42_53">
<rect width="120" height="120" fill="white" transform="translate(0 350)"/>
</clipPath>
<clipPath id="clip64_42_53">
<rect width="120" height="120" fill="white" transform="translate(1200 350)"/>
</clipPath>
<clipPath id="clip65_42_53">
<rect width="120" height="120" fill="white" transform="translate(0 470)"/>
</clipPath>
<clipPath id="clip66_42_53">
<rect width="120" height="120" fill="white" transform="translate(120 470)"/>
</clipPath>
<clipPath id="clip67_42_53">
<rect width="120" height="120" fill="white" transform="translate(240 470)"/>
</clipPath>
<clipPath id="clip68_42_53">
<rect width="120" height="120" fill="white" transform="translate(360 470)"/>
</clipPath>
<clipPath id="clip69_42_53">
<rect width="120" height="120" fill="white" transform="translate(480 470)"/>
</clipPath>
<clipPath id="clip70_42_53">
<rect width="120" height="120" fill="white" transform="translate(600 470)"/>
</clipPath>
<clipPath id="clip71_42_53">
<rect width="120" height="120" fill="white" transform="translate(720 470)"/>
</clipPath>
<clipPath id="clip72_42_53">
<rect width="120" height="120" fill="white" transform="translate(840 470)"/>
</clipPath>
<clipPath id="clip73_42_53">
<rect width="120" height="120" fill="white" transform="translate(960 470)"/>
</clipPath>
<clipPath id="clip74_42_53">
<rect width="120" height="120" fill="white" transform="translate(1080 470)"/>
</clipPath>
<clipPath id="clip75_42_53">
<rect width="120" height="120" fill="white" transform="translate(1200 470)"/>
</clipPath>
<clipPath id="clip76_42_53">
<rect width="120" height="120" fill="white" transform="translate(0 470)"/>
</clipPath>
<clipPath id="clip77_42_53">
<rect width="120" height="120" fill="white" transform="translate(1200 470)"/>
</clipPath>
<clipPath id="clip78_42_53">
<rect width="120" height="120" fill="white" transform="translate(0 590)"/>
</clipPath>
<clipPath id="clip79_42_53">
<rect width="120" height="120" fill="white" transform="translate(120 590)"/>
</clipPath>
<clipPath id="clip80_42_53">
<rect width="120" height="120" fill="white" transform="translate(240 590)"/>
</clipPath>
<clipPath id="clip81_42_53">
<rect width="120" height="120" fill="white" transform="translate(360 590)"/>
</clipPath>
<clipPath id="clip82_42_53">
<rect width="120" height="120" fill="white" transform="translate(480 590)"/>
</clipPath>
<clipPath id="clip83_42_53">
<rect width="120" height="120" fill="white" transform="translate(600 590)"/>
</clipPath>
<clipPath id="clip84_42_53">
<rect width="120" height="120" fill="white" transform="translate(720 590)"/>
</clipPath>
<clipPath id="clip85_42_53">
<rect width="120" height="120" fill="white" transform="translate(840 590)"/>
</clipPath>
<clipPath id="clip86_42_53">
<rect width="120" height="120" fill="white" transform="translate(960 590)"/>
</clipPath>
<clipPath id="clip87_42_53">
<rect width="120" height="120" fill="white" transform="translate(1080 590)"/>
</clipPath>
<clipPath id="clip88_42_53">
<rect width="120" height="120" fill="white" transform="translate(1200 590)"/>
</clipPath>
<clipPath id="clip89_42_53">
<rect width="120" height="120" fill="white" transform="translate(0 590)"/>
</clipPath>
<clipPath id="clip90_42_53">
<rect width="120" height="120" fill="white" transform="translate(1200 590)"/>
</clipPath>
<clipPath id="clip91_42_53">
<rect width="120" height="120" fill="white" transform="translate(0 710)"/>
</clipPath>
<clipPath id="clip92_42_53">
<rect width="120" height="120" fill="white" transform="translate(120 710)"/>
</clipPath>
<clipPath id="clip93_42_53">
<rect width="120" height="120" fill="white" transform="translate(240 710)"/>
</clipPath>
<clipPath id="clip94_42_53">
<rect width="120" height="120" fill="white" transform="translate(360 710)"/>
</clipPath>
<clipPath id="clip95_42_53">
<rect width="120" height="120" fill="white" transform="translate(480 710)"/>
</clipPath>
<clipPath id="clip96_42_53">
<rect width="120" height="120" fill="white" transform="translate(600 710)"/>
</clipPath>
<clipPath id="clip97_42_53">
<rect width="120" height="120" fill="white" transform="translate(720 710)"/>
</clipPath>
<clipPath id="clip98_42_53">
<rect width="120" height="120" fill="white" transform="translate(840 710)"/>
</clipPath>
<clipPath id="clip99_42_53">
<rect width="120" height="120" fill="white" transform="translate(960 710)"/>
</clipPath>
<clipPath id="clip100_42_53">
<rect width="120" height="120" fill="white" transform="translate(1080 710)"/>
</clipPath>
<clipPath id="clip101_42_53">
<rect width="120" height="120" fill="white" transform="translate(1200 710)"/>
</clipPath>
<clipPath id="clip102_42_53">
<rect width="120" height="120" fill="white" transform="translate(0 710)"/>
</clipPath>
<clipPath id="clip103_42_53">
<rect width="120" height="120" fill="white" transform="translate(1200 710)"/>
</clipPath>
<clipPath id="clip104_42_53">
<rect width="120" height="120" fill="white" transform="translate(0 830)"/>
</clipPath>
<clipPath id="clip105_42_53">
<rect width="120" height="120" fill="white" transform="translate(120 830)"/>
</clipPath>
<clipPath id="clip106_42_53">
<rect width="120" height="120" fill="white" transform="translate(240 830)"/>
</clipPath>
<clipPath id="clip107_42_53">
<rect width="120" height="120" fill="white" transform="translate(360 830)"/>
</clipPath>
<clipPath id="clip108_42_53">
<rect width="120" height="120" fill="white" transform="translate(480 830)"/>
</clipPath>
<clipPath id="clip109_42_53">
<rect width="120" height="120" fill="white" transform="translate(600 830)"/>
</clipPath>
<clipPath id="clip110_42_53">
<rect width="120" height="120" fill="white" transform="translate(720 830)"/>
</clipPath>
<clipPath id="clip111_42_53">
<rect width="120" height="120" fill="white" transform="translate(840 830)"/>
</clipPath>
<clipPath id="clip112_42_53">
<rect width="120" height="120" fill="white" transform="translate(960 830)"/>
</clipPath>
<clipPath id="clip113_42_53">
<rect width="120" height="120" fill="white" transform="translate(1080 830)"/>
</clipPath>
<clipPath id="clip114_42_53">
<rect width="120" height="120" fill="white" transform="translate(1200 830)"/>
</clipPath>
<clipPath id="clip115_42_53">
<rect width="120" height="120" fill="white" transform="translate(0 830)"/>
</clipPath>
<clipPath id="clip116_42_53">
<rect width="120" height="120" fill="white" transform="translate(1200 830)"/>
</clipPath>
</defs>
</svg>
